<?xml version="1.0" encoding="UTF-8" standalone="no"?>
<!-- Created with Inkscape (http://www.inkscape.org/) -->

<svg
   width="166.95207mm"
   height="85.460419mm"
   viewBox="0 0 166.95208 85.460419"
   version="1.1"
   id="svg1"
   inkscape:version="1.4.2 (f4327f4, 2025-05-13)"
   sodipodi:docname="path3-2.svg"
   xml:space="preserve"
   inkscape:export-filename="HOUSSEM 6.svg"
   inkscape:export-xdpi="96"
   inkscape:export-ydpi="96"
   xmlns:inkscape="http://www.inkscape.org/namespaces/inkscape"
   xmlns:sodipodi="http://sodipodi.sourceforge.net/DTD/sodipodi-0.dtd"
   xmlns="http://www.w3.org/2000/svg"
   xmlns:svg="http://www.w3.org/2000/svg"><sodipodi:namedview
     id="namedview1"
     pagecolor="#ffffff"
     bordercolor="#000000"
     borderopacity="0.25"
     inkscape:showpageshadow="2"
     inkscape:pageopacity="0.0"
     inkscape:pagecheckerboard="0"
     inkscape:deskcolor="#d1d1d1"
     inkscape:document-units="mm"
     inkscape:zoom="0.5"
     inkscape:cx="3591"
     inkscape:cy="161"
     inkscape:window-width="1920"
     inkscape:window-height="974"
     inkscape:window-x="-11"
     inkscape:window-y="-11"
     inkscape:window-maximized="1"
     inkscape:current-layer="layer1"
     inkscape:export-bgcolor="#ffffffff" /><defs
     id="defs1" /><g
     inkscape:label="Layer 1"
     inkscape:groupmode="layer"
     id="layer1"
     transform="translate(5790.316,274.80479)"><rect
       style="fill:#e3dedb;stroke-width:0.264999"
       id="rect7"
       width="166.9521"
       height="85.460411"
       x="-5790.3159"
       y="-274.80478"
       inkscape:export-filename="02.svg"
       inkscape:export-xdpi="96"
       inkscape:export-ydpi="96" /><path
       style="fill:#000000"
       d="m -5790.3157,-232.07456 v -42.73021 h 83.4761 83.476 v 42.73021 42.7302 h -83.476 -83.4761 z m 62.1771,24.20937 c 0,-0.36845 1.1497,-0.332 1.5302,0.0485 0.1722,0.1722 0.3776,0.24859 0.4564,0.16974 0.2146,-0.21455 -0.8671,-2.59949 -1.179,-2.59949 -0.1482,0 -0.5712,0.59531 -0.9399,1.32291 -0.5393,1.06421 -0.5919,1.32292 -0.269,1.32292 0.2207,0 0.4013,-0.11906 0.4013,-0.26458 z m 0.5292,-1.20624 c 0,-0.22687 0.119,-0.3389 0.2646,-0.24897 0.1455,0.0899 0.2646,0.27556 0.2646,0.41249 0,0.13694 -0.1191,0.24897 -0.2646,0.24897 -0.1456,0 -0.2646,-0.18562 -0.2646,-0.41249 z m 3.7042,0.41249 c 0,-0.76435 0.1102,-1.05833 0.3968,-1.05833 0.2183,0 0.3969,-0.11906 0.3969,-0.26458 0,-0.14552 -0.5358,-0.26459 -1.1906,-0.26459 -0.6549,0 -1.1906,0.11907 -1.1906,0.26459 0,0.14552 0.2381,0.26458 0.5291,0.26458 0.441,0 0.5292,0.17639 0.5292,1.05833 0,0.58209 0.119,1.05834 0.2646,1.05834 0.1455,0 0.2646,-0.47625 0.2646,-1.05834 z m 4.4979,0.66146 c 0,-0.21828 0.2284,-0.39687 0.5075,-0.39687 0.8991,0 1.3446,-0.30679 1.3446,-0.92605 0,-0.66926 -0.4462,-0.92604 -1.6092,-0.92604 -0.7501,0 -0.7721,0.0376 -0.7721,1.32292 0,0.7276 0.1191,1.32292 0.2646,1.32292 0.1455,0 0.2646,-0.1786 0.2646,-0.39688 z m 0,-1.30451 c 0,-0.27015 0.2388,-0.41528 0.6835,-0.41528 0.8288,0 0.7381,0.62136 -0.1089,0.74601 -0.3816,0.0562 -0.5746,-0.0549 -0.5746,-0.33073 z m 3.7041,0.37847 c 0,-0.7276 -0.119,-1.32292 -0.2645,-1.32292 -0.1456,0 -0.2646,0.59532 -0.2646,1.32292 0,0.7276 0.119,1.32292 0.2646,1.32292 0.1455,0 0.2645,-0.59532 0.2645,-1.32292 z m 3.7042,1.05833 c 0,-0.14552 -0.3572,-0.26458 -0.7937,-0.26458 -0.4366,0 -0.7938,-0.11906 -0.7938,-0.26458 0,-0.14552 0.2977,-0.26459 0.6615,-0.26459 0.3638,0 0.6614,-0.11906 0.6614,-0.26458 0,-0.14552 -0.2976,-0.26458 -0.6614,-0.26458 -0.3638,0 -0.6615,-0.11907 -0.6615,-0.26459 0,-0.14552 0.3572,-0.26458 0.7938,-0.26458 0.4365,0 0.7937,-0.11906 0.7937,-0.26458 0,-0.14552 -0.5358,-0.26459 -1.1906,-0.26459 h -1.1906 v 1.32292 1.32292 h 1.1906 c 0.6548,0 1.1906,-0.11907 1.1906,-0.26459 z m 1.8521,-0.26458 c 0,-0.36067 0.1764,-0.52917 0.5539,-0.52917 0.3314,0 0.6095,0.21257 0.6923,0.52917 0.2585,0.9882 0.5897,0.53475 0.5315,-0.7276 l -0.058,-1.25678 -1.2568,-0.0806 -1.2568,-0.0806 v 1.33742 c 0,1.01242 0.097,1.33741 0.3969,1.33741 0.2205,0 0.3969,-0.23518 0.3969,-0.52917 z m 0,-1.32292 c 0,-0.14552 0.2311,-0.26458 0.5135,-0.26458 0.2825,0 0.5872,0.11906 0.6771,0.26458 0.093,0.15006 -0.1295,0.26459 -0.5135,0.26459 -0.3724,0 -0.6771,-0.11907 -0.6771,-0.26459 z m 7.5406,1.05834 c 0,-0.55287 -0.1412,-0.67507 -0.8599,-0.74437 -0.4729,-0.0456 -0.8599,-0.20768 -0.8599,-0.36018 0,-0.17629 0.3555,-0.21057 0.9762,-0.0941 0.87,0.16321 0.9384,0.13762 0.6291,-0.23513 -0.4499,-0.54207 -1.7058,-0.53786 -2.1582,0.007 -0.3001,0.36152 -0.2774,0.48087 0.1505,0.79375 0.2769,0.20253 0.7785,0.36824 1.1144,0.36824 0.336,0 0.6109,0.13428 0.6109,0.2984 0,0.20177 -0.3557,0.24151 -1.0986,0.12271 -0.9832,-0.15722 -1.0621,-0.13155 -0.7503,0.24415 0.2283,0.27513 0.6754,0.39242 1.2971,0.34031 0.8144,-0.0683 0.9487,-0.1732 0.9487,-0.74099 z m 1.9844,-0.52917 c 0,-0.7276 -0.1191,-1.32292 -0.2646,-1.32292 -0.1455,0 -0.2646,0.59532 -0.2646,1.32292 0,0.7276 0.1191,1.32292 0.2646,1.32292 0.1455,0 0.2646,-0.59532 0.2646,-1.32292 z m 2.124,0.91937 c 0.3997,-0.36168 0.4807,-0.36168 0.7809,0 0.1842,0.22195 0.5075,0.40355 0.7186,0.40355 0.2925,0 0.252,-0.16739 -0.1705,-0.70444 l -0.5541,-0.70444 0.581,-0.61848 c 0.6756,-0.7191 0.1553,-0.87756 -0.6093,-0.18559 -0.4429,0.4008 -0.4906,0.4008 -0.6444,0 -0.091,-0.23809 -0.332,-0.43289 -0.5347,-0.43289 -0.4859,0 -0.4654,0.24825 0.069,0.83907 0.4074,0.45023 0.4074,0.51747 0,0.9677 -0.7502,0.82895 -0.4583,1.17896 0.3632,0.43552 z m 3.9614,-0.65479 c 0,-0.88194 0.088,-1.05833 0.5292,-1.05833 0.291,0 0.5291,-0.11906 0.5291,-0.26458 0,-0.14552 -0.5357,-0.26459 -1.1906,-0.26459 -0.6548,0 -1.1906,0.11907 -1.1906,0.26459 0,0.14552 0.1786,0.26458 0.3969,0.26458 0.2866,0 0.3968,0.29398 0.3968,1.05833 0,0.58209 0.1191,1.05834 0.2646,1.05834 0.1455,0 0.2646,-0.47625 0.2646,-1.05834 z m 3.4396,0.50387 c 0,-0.30496 0.2462,-0.90027 0.5472,-1.32292 0.4438,-0.62335 0.4713,-0.76845 0.1454,-0.76845 -0.221,0 -0.517,0.20588 -0.6578,0.45752 -0.2404,0.42966 -0.2896,0.42708 -0.8085,-0.0425 -0.7713,-0.69798 -0.9907,-0.32655 -0.3148,0.53275 0.3076,0.39109 0.5593,0.93314 0.5593,1.20456 0,0.27141 0.1191,0.49348 0.2646,0.49348 0.1455,0 0.2646,-0.24951 0.2646,-0.55447 z m 6.7252,0.39387 c 0.2302,-0.0883 0.4185,-0.37325 0.4185,-0.63315 0,-0.49856 -0.5,-0.79375 -1.3445,-0.79375 -0.2792,0 -0.5075,-0.13395 -0.5075,-0.29766 0,-0.19134 0.291,-0.23944 0.815,-0.13465 0.585,0.117 0.7846,0.0703 0.7072,-0.16537 -0.1638,-0.49893 -1.6437,-0.555 -2.0402,-0.0773 -0.4517,0.54432 0.067,1.20414 0.9472,1.20414 0.346,0 0.6291,0.13231 0.6291,0.29403 0,0.19273 -0.319,0.23418 -0.9261,0.1203 -0.5369,-0.10074 -0.926,-0.0668 -0.926,0.0808 0,0.47768 1.3811,0.72733 2.2273,0.40261 z m 2.2706,-1.16232 c 0,-0.7276 -0.119,-1.32292 -0.2646,-1.32292 -0.1455,0 -0.2645,0.59532 -0.2645,1.32292 0,0.7276 0.119,1.32292 0.2645,1.32292 0.1456,0 0.2646,-0.59532 0.2646,-1.32292 z m 2.1565,0.89003 c 0.4429,-0.4008 0.4906,-0.4008 0.6444,0 0.091,0.23809 0.332,0.43289 0.5347,0.43289 0.481,0 0.4661,-0.24747 -0.049,-0.81669 -0.381,-0.42093 -0.3783,-0.52157 0.03,-1.14532 0.4786,-0.73043 0.1481,-0.95523 -0.4121,-0.28028 -0.3002,0.36168 -0.3812,0.36168 -0.7808,0 -0.7412,-0.67074 -1.2359,-0.48645 -0.577,0.21493 l 0.5811,0.61848 -0.5541,0.70444 c -0.6201,0.78822 -0.2033,0.98255 0.5824,0.27155 z m -7.9773,-0.62545 c 0,-0.14552 -0.2381,-0.26458 -0.5292,-0.26458 -0.291,0 -0.5291,0.11906 -0.5291,0.26458 0,0.14552 0.2381,0.26459 0.5291,0.26459 0.2911,0 0.5292,-0.11907 0.5292,-0.26459 z m -10.3108,-5.62239 c 1.135,-0.57341 2.3733,-2.00879 2.3733,-2.75111 0,-0.24554 -0.3594,-0.35775 -1.1459,-0.35775 -0.9374,0 -1.2075,0.11505 -1.4843,0.63224 -0.6091,1.1381 -2.6192,1.58941 -4.0915,0.9186 -0.9122,-0.41564 -1.5771,-1.90577 -1.3863,-3.10706 0.3658,-2.30281 3.3262,-3.26631 4.9737,-1.61878 0.6427,0.64267 1.0165,0.79375 1.964,0.79375 0.6437,0 1.1703,-0.10145 1.1703,-0.22545 0,-0.124 -0.2695,-0.63002 -0.5988,-1.12448 -1.5524,-2.33075 -6.1083,-2.78426 -8.421,-0.83828 -1.9196,1.61528 -2.1214,4.80041 -0.4214,6.65489 1.5132,1.65081 4.8652,2.13618 7.0679,1.02343 z m 22.8208,0.23253 c 0.4683,-0.19952 1.1491,-0.685 1.5129,-1.07883 0.6261,-0.67775 0.6661,-0.90602 0.7481,-4.26743 l 0.087,-3.55138 h -1.0567 -1.0567 l -0.088,3.19896 c -0.082,2.98943 -0.1292,3.23204 -0.7129,3.70416 -0.8627,0.69773 -2.7679,0.6846 -3.4764,-0.0239 -0.4621,-0.46203 -0.5332,-0.90681 -0.5605,-3.50573 -0.017,-1.63711 -0.017,-3.06586 0,-3.175 0.017,-0.10914 -0.514,-0.19843 -1.1804,-0.19843 h -1.2116 l 0.087,3.42124 c 0.098,3.83072 0.3541,4.49042 2.0903,5.37574 1.101,0.56142 3.6138,0.61391 4.8183,0.10066 z m -67.0142,-3.46048 v -3.55867 l 1.5214,-0.0794 c 1.5041,-0.0784 1.5223,-0.0891 1.6042,-0.93924 l 0.083,-0.8599 h -4.3991 -4.3992 l 0.083,0.8599 c 0.082,0.85014 0.1002,0.86079 1.6043,0.93924 l 1.5214,0.0794 v 3.55867 3.55868 h 1.1906 1.1906 z m 7.9375,1.70659 v -1.85208 h 2.249 2.2489 v 1.85208 1.85209 h 1.1907 1.1906 v -4.49792 -4.49792 h -1.1906 -1.1907 v 1.71979 1.7198 h -2.2489 -2.249 v -1.7198 -1.71979 h -1.0583 -1.0583 v 4.49792 4.49792 h 1.0583 1.0583 z m 18.5209,0.92604 v -0.92604 h -2.7626 c -1.5193,0 -2.8181,-0.09 -2.886,-0.19994 -0.068,-0.10997 -0.061,-0.52669 0.015,-0.92604 l 0.1388,-0.7261 h 2.4827 2.4827 v -0.92604 -0.92604 h -2.4853 c -2.5744,0 -3.0176,-0.20007 -2.6375,-1.19063 0.1219,-0.31755 0.7019,-0.39687 2.9021,-0.39687 h 2.7499 v -0.92605 -0.92604 h -3.9688 -3.9687 v 4.49792 4.49792 h 3.9687 3.9688 z m 30.427,0 v -0.92604 h -2.3812 -2.3813 v -3.57187 -3.57188 h -1.0583 -1.0583 v 4.49792 4.49792 h 3.4396 3.4395 z m 24.3815,0.64017 c 0.8666,-0.46382 1.3665,-1.96693 1.0117,-3.04206 -0.1636,-0.49572 -0.4845,-1.00603 -0.7132,-1.13401 -0.3763,-0.21055 -0.3744,-0.29188 0.02,-0.85466 0.624,-0.89084 0.5633,-2.42317 -0.1204,-3.04291 -0.4819,-0.43676 -1.0646,-0.51546 -4.3657,-0.58969 l -3.8095,-0.0857 v 4.51744 4.51743 h 3.7216 c 2.1599,0 3.9457,-0.11996 4.2557,-0.28588 z m -5.8606,-2.49225 v -0.92604 h 2.0842 c 2.2553,0 2.8662,0.31389 2.55,1.31022 -0.1554,0.48966 -0.3869,0.54186 -2.4031,0.54186 h -2.2311 z m 0,-3.45071 v -0.93717 l 2.0505,0.0773 c 1.9341,0.0729 2.0556,0.11312 2.1398,0.70881 0.1234,0.87278 -0.335,1.07951 -2.4044,1.0842 l -1.7859,0.004 z m -32.0146,-9.08318 c 0,-0.12692 -0.5029,-0.31119 -1.1176,-0.40947 -2.0565,-0.32885 -2.7122,-1.71329 -1.3298,-2.80794 0.6255,-0.49534 0.9317,-0.55205 2.1828,-0.40428 4.3282,0.51122 4.6696,0.50505 5.9345,-0.10728 0.8693,-0.4208 1.4235,-0.94066 1.9406,-1.82036 0.6691,-1.13815 0.731,-1.48979 0.8176,-4.64548 l 0.094,-3.41411 -3.0849,0.15193 c -2.5007,0.12316 -3.3176,0.26866 -4.3134,0.76828 -1.8077,0.907 -2.2383,1.65217 -2.3717,4.10461 -0.1351,2.48229 -0.4252,3.3381 -1.2883,3.79998 -0.9877,0.52864 -1.1862,0.0856 -1.2012,-2.68123 -0.017,-3.14688 0.171,-3.94555 0.9293,-3.94555 1.5799,0 2.3244,-1.59619 1.5948,-3.41948 -0.7427,-1.85628 0.3636,-2.19584 3.1393,-0.9635 3.5114,1.55901 6.6464,0.2848 6.9992,-2.84473 0.2367,-2.09996 -1.4154,-4.57968 -3.3771,-5.06899 -0.6456,-0.16103 -0.6661,-0.12798 -0.5667,0.9139 0.1254,1.315 -0.3232,2.48577 -1.1633,3.03623 -0.3445,0.22575 -1.6115,0.63983 -2.8154,0.92016 -1.7571,0.40914 -2.3321,0.66999 -2.9149,1.32222 -0.7987,0.89393 -0.998,0.98682 -0.998,0.46515 0,-0.58598 1.3617,-1.66737 3.3459,-2.65719 2.1852,-1.09005 3.0041,-1.97918 3.0041,-3.26197 0,-1.8529 -1.0009,-2.77993 -3.7679,-3.48972 -0.8849,-0.227 -0.9638,-0.20718 -0.7453,0.18712 0.1344,0.24255 0.6072,0.67851 1.0506,0.96878 0.4434,0.29028 0.9456,0.86436 1.116,1.27574 0.4088,0.98705 -0.1671,2.23341 -1.5092,3.266 -2.0092,1.54578 -2.8178,2.32513 -3.0961,2.98391 l -0.2864,0.67783 -0.1064,-0.61812 c -0.082,-0.47454 0.29,-1.02873 1.6002,-2.38591 2.5798,-2.67223 2.6204,-4.25875 0.1432,-5.59804 -0.6761,-0.36552 -1.4615,-0.87479 -1.7454,-1.13171 -0.4971,-0.44991 -0.5688,-0.4331 -1.9426,0.45577 -2.6576,1.71954 -2.8817,1.95411 -2.8798,3.01428 0,1.17843 0.5385,2.03685 2.1705,3.47341 1.262,1.11079 1.7093,1.8923 1.3843,2.41818 -0.1086,0.17582 -0.3464,-0.0461 -0.5914,-0.55181 -0.2253,-0.46524 -1.0246,-1.30013 -1.7761,-1.85533 -1.875,-1.38511 -2.7766,-2.51664 -2.7766,-3.4846 0,-0.62375 0.3051,-1.08319 1.3891,-2.09173 0.764,-0.71083 1.3123,-1.2945 1.2185,-1.29705 -0.6425,-0.0174 -3.6619,1.13985 -4.0272,1.54358 -0.7415,0.8193 -0.991,2.10417 -0.5918,3.0471 0.478,1.12874 1.2022,1.72514 3.4163,2.81302 1.7842,0.87671 3.1473,2.15061 2.7385,2.55939 -0.1027,0.10275 -0.3699,-0.0746 -0.5936,-0.39405 -0.5608,-0.80056 -1.5691,-1.27583 -3.7677,-1.7759 -1.0308,-0.23445 -2.1688,-0.65797 -2.5288,-0.94116 -0.8948,-0.70389 -1.3483,-2.14505 -0.9943,-3.16035 0.3211,-0.92128 -0.036,-1.03538 -1.2599,-0.40249 -3.3119,1.71266 -3.6047,6.36197 -0.5023,7.97616 1.1415,0.59393 2.892,0.4478 5.0667,-0.42296 1.5841,-0.63434 2.1221,-0.74244 2.6658,-0.53572 0.7789,0.29616 0.8052,0.41913 0.2843,1.33041 -0.8678,1.51805 -0.012,3.70417 1.4497,3.70417 0.7729,0 1.0645,0.96897 1.0602,3.52295 -0.01,3.42578 -0.3876,4.04742 -1.6876,2.74736 -0.512,-0.512 -0.6316,-0.97347 -0.7519,-2.90098 -0.1774,-2.84422 -0.6683,-3.79723 -2.3998,-4.6589 -1.0957,-0.54528 -1.6708,-0.6325 -4.3612,-0.66146 l -3.099,-0.0333 -0.08,1.84765 c -0.1886,4.37464 0.9108,7.06089 3.2564,7.95669 1.124,0.42927 1.4837,0.44041 4.115,0.1275 2.5996,-0.30915 2.9489,-0.29988 3.5504,0.0943 0.5045,0.33055 0.6672,0.66474 0.6672,1.37058 0,0.81506 -0.1164,0.98206 -0.9176,1.31682 -0.5046,0.21085 -1.226,0.38337 -1.6031,0.38337 -0.3897,0 -0.615,0.1142 -0.522,0.26458 0.2033,0.32902 9.1281,0.36208 9.1281,0.0338 z"
       id="path1"
       inkscape:export-filename="02.svg"
       inkscape:export-xdpi="96"
       inkscape:export-ydpi="96" /></g></svg>
