<?xml version="1.0" encoding="UTF-8" standalone="no"?>
<!-- Created with Inkscape (http://www.inkscape.org/) -->

<svg
   width="94.985413mm"
   height="55.562496mm"
   viewBox="0 0 94.985415 55.562496"
   version="1.1"
   id="svg1"
   inkscape:version="1.4.2 (f4327f4, 2025-05-13)"
   sodipodi:docname="path3-2.svg"
   xml:space="preserve"
   inkscape:export-filename="HOUSSEM 6.svg"
   inkscape:export-xdpi="96"
   inkscape:export-ydpi="96"
   xmlns:inkscape="http://www.inkscape.org/namespaces/inkscape"
   xmlns:sodipodi="http://sodipodi.sourceforge.net/DTD/sodipodi-0.dtd"
   xmlns="http://www.w3.org/2000/svg"
   xmlns:svg="http://www.w3.org/2000/svg"><sodipodi:namedview
     id="namedview1"
     pagecolor="#ffffff"
     bordercolor="#000000"
     borderopacity="0.25"
     inkscape:showpageshadow="2"
     inkscape:pageopacity="0.0"
     inkscape:pagecheckerboard="0"
     inkscape:deskcolor="#d1d1d1"
     inkscape:document-units="mm"
     inkscape:zoom="0.5"
     inkscape:cx="3591"
     inkscape:cy="161"
     inkscape:window-width="1920"
     inkscape:window-height="974"
     inkscape:window-x="-11"
     inkscape:window-y="-11"
     inkscape:window-maximized="1"
     inkscape:current-layer="layer1"
     inkscape:export-bgcolor="#ffffffff" /><defs
     id="defs1" /><g
     inkscape:label="Layer 1"
     inkscape:groupmode="layer"
     id="layer1"
     transform="translate(5709.1792,337.34368)"><rect
       style="fill:#000000;stroke-width:0.264999"
       id="rect8"
       width="94.985413"
       height="55.5625"
       x="-5709.1792"
       y="-337.34369" /><path
       style="fill:#ffffff"
       d="m -5643.0804,-292.97174 c -4.1139,-0.42965 -7.695,-2.81287 -8.8487,-5.8888 -0.1537,-0.40965 -0.2794,-1.39574 -0.2794,-2.19131 0,-2.39466 1.0535,-4.29013 3.2631,-5.87065 l 1.2152,-0.8693 0.6369,1.00159 0.6368,1.00159 -0.7771,0.88928 c -0.9925,1.13593 -1.271,1.88751 -1.2698,3.42742 0,1.52746 0.6527,2.66286 2.1503,3.7477 3.6058,2.61207 8.9588,1.86837 11.2733,-1.56625 0.7227,-1.07233 0.7935,-2.83192 0.1672,-4.1518 -0.8659,-1.82482 -3.6509,-3.53371 -5.7675,-3.53902 -0.6681,-0.002 -0.9187,-0.18757 -1.4081,-1.0446 -0.3274,-0.57342 -0.5953,-1.16781 -0.5953,-1.32088 0,-0.35748 3.1786,-0.35605 4.7322,0.002 5.7799,1.33252 9.1505,6.55568 7.0754,10.96436 -1.8441,3.91789 -6.5422,5.9999 -12.2045,5.40855 z m 1.5875,-7.23124 c -0.6145,-0.26847 -1.2925,-1.20719 -3.0023,-4.15684 -1.2147,-2.09553 -2.3767,-3.98554 -2.5822,-4.20002 -0.3282,-0.3425 -0.5205,-0.31029 -1.5797,0.26459 -2.7158,1.47391 -4.6066,4.09333 -5.0199,6.95426 -0.1116,0.77225 -0.3011,1.22988 -0.4822,1.16388 -0.164,-0.0598 -2.0544,-0.66692 -4.2009,-1.34913 -2.1464,-0.68221 -3.9026,-1.33251 -3.9026,-1.44511 0,-0.1126 0.3572,-0.54694 0.7938,-0.96519 0.4365,-0.41825 0.7937,-0.8368 0.7937,-0.9301 0,-0.26111 -2.5506,-0.78969 -3.8105,-0.78969 -0.6184,0 -1.9763,0.29765 -3.0175,0.66146 -2.1571,0.75364 -3.162,0.8147 -4.8831,0.29672 l -1.212,-0.36474 -0.8479,0.87487 c -1.8065,1.86379 -5.6362,3.27868 -8.904,3.28959 -6.1192,0.0204 -10.645,-4.0467 -9.6166,-8.64211 0.3482,-1.55592 1.5633,-3.54108 2.9504,-4.82046 2.4924,-2.29871 9.1141,-4.15562 11.4819,-3.21983 0.4295,0.16977 0.3177,0.24531 -0.594,0.4013 -1.628,0.27855 -1.588,0.57659 0.083,0.62056 0.9039,0.0238 2.0666,0.30206 3.0958,0.74091 0.9065,0.38655 1.9458,0.68778 2.3096,0.66941 0.3638,-0.0184 1.8811,0.16444 3.3716,0.40626 3.1274,0.50737 4.5211,0.2792 5.2693,-0.86263 0.6127,-0.93513 0.1376,-1.33422 -2.1705,-1.82315 -2.6757,-0.56681 -2.8759,-0.53173 -3.9188,0.68668 l -0.9293,1.08568 -1.7372,-0.57808 c -0.9554,-0.31795 -1.7371,-0.66499 -1.7371,-0.77121 0,-0.10621 0.9645,-1.31689 2.1433,-2.6904 1.1788,-1.37351 2.3331,-2.77962 2.565,-3.12468 0.4632,-0.68923 0.5791,-0.51706 -1.2683,-1.88335 -0.3635,-0.26886 -0.6016,-0.54689 -0.5291,-0.61785 0.1259,-0.12328 11.4729,1.42004 13.1519,1.78883 1.5849,0.34809 3.9408,1.80086 5.6468,3.48202 1.6002,1.57695 1.9401,1.7778 4.4179,2.61061 1.4764,0.49622 2.9389,1.03846 3.25,1.20497 0.3111,0.1665 0.6367,0.23178 0.7234,0.14505 0.2653,-0.2653 -1.5708,-1.98894 -3.1836,-2.98862 -0.839,-0.52001 -1.4677,-1.00318 -1.3971,-1.0737 0.2322,-0.23223 3.419,0.50494 5.1714,1.19624 4.4752,1.7654 8.6585,5.55265 9.6382,8.72568 l 0.1808,0.58542 -1.4038,-0.43714 c -1.7609,-0.54838 -6.8936,-0.6413 -7.4009,-0.13399 -0.2704,0.27042 0.056,1.11837 1.6918,4.3929 2.2734,4.55135 2.5729,5.40106 2.0261,5.74737 -0.4603,0.29153 -0.4679,0.29085 -1.4249,-0.12724 z m -38.7361,-4.41534 c 0.9723,-0.24802 3.1497,-1.66384 3.1497,-2.04805 0,-0.11714 -1.4288,-0.49115 -3.1751,-0.83115 -1.7462,-0.34 -3.2961,-0.7641 -3.4441,-0.94246 -0.4642,-0.55933 -0.01,-1.11361 1.2023,-1.45166 1.0223,-0.28625 1.8296,-0.22181 6.6429,0.5303 6.724,1.05067 5.8959,1.22178 15.2312,-3.14722 l 6.8,-3.18244 4.5762,0.79084 c 4.9664,0.85827 5.7734,0.89102 4.7103,0.19119 -0.3768,-0.24805 -2.4832,-0.73062 -4.8948,-1.12138 -5.8735,-0.95172 -5.6404,-0.88321 -6.8734,-2.01976 l -1.1095,-1.02266 -1.0254,0.5228 c -0.5736,0.29246 -1.5545,0.52324 -2.2263,0.52379 l -1.2008,9.9e-4 0.8528,0.51997 c 1.0795,0.65821 1.3409,1.6258 0.7654,2.83281 -0.3509,0.73583 -0.843,1.1104 -2.4831,1.89031 -1.911,0.90867 -2.2108,0.97264 -4.5591,0.97264 -1.3824,0 -2.9075,-0.0877 -3.3891,-0.19496 l -0.8756,-0.19496 0.178,1.18652 0.1779,1.18653 -0.7576,-0.12795 c -1.2483,-0.21085 -6.4423,-0.92914 -6.7187,-0.92914 -0.1411,0 -0.2565,-0.10021 -0.2565,-0.22269 0,-0.12248 0.7154,-0.43932 1.5899,-0.70408 1.5494,-0.46912 1.5781,-0.49452 1.1245,-0.99609 -1.5516,-1.71569 -5.2107,-2.26579 -8.1558,-1.22609 -4.9559,1.74958 -6.1866,6.7673 -2.174,8.86346 1.6626,0.86851 3.8185,0.98814 6.3178,0.35059 z m 23.9275,-3.83113 c 0.9888,-0.66309 2.731,-1.63216 3.8715,-2.15349 1.1405,-0.52133 2.0736,-0.99502 2.0736,-1.05265 0,-0.34738 -0.9139,-1.40908 -1.2129,-1.40908 -0.3736,0 -9.5974,4.63421 -9.994,5.02115 -0.1944,0.18962 1.7064,0.67062 3.0359,0.76826 0.2354,0.0173 1.237,-0.5111 2.2259,-1.17419 z m -5.7465,-11.50469 c 1.2223,-1.13876 0.6824,-1.57973 -2.5478,-2.08091 l -1.9269,-0.29897 -0.7142,0.83724 c -1.2438,1.45788 -1.2389,1.48938 0.2762,1.76565 2.5184,0.45922 4.2656,0.37991 4.9127,-0.22301 z m 8.6193,-1.57192 c -0.758,-0.30625 -1.6902,-1.5368 -1.6902,-2.23104 0,-1.99684 3.2208,-3.23273 5.2309,-2.00719 1.2672,0.77262 1.5847,1.63569 1.0298,2.79938 -0.6762,1.41785 -2.8943,2.11613 -4.5705,1.43885 z"
       id="path2-4" /></g></svg>
