<?xml version="1.0" encoding="UTF-8" standalone="no"?>
<!-- Created with Inkscape (http://www.inkscape.org/) -->

<svg
   width="220.01602mm"
   height="211.03601mm"
   viewBox="0 0 220.01603 211.03601"
   version="1.1"
   id="svg1"
   inkscape:version="1.4.2 (f4327f4, 2025-05-13)"
   sodipodi:docname="path3-2.svg"
   xml:space="preserve"
   inkscape:export-filename="HOUSSEM 6.svg"
   inkscape:export-xdpi="96"
   inkscape:export-ydpi="96"
   xmlns:inkscape="http://www.inkscape.org/namespaces/inkscape"
   xmlns:sodipodi="http://sodipodi.sourceforge.net/DTD/sodipodi-0.dtd"
   xmlns="http://www.w3.org/2000/svg"
   xmlns:svg="http://www.w3.org/2000/svg"><sodipodi:namedview
     id="namedview1"
     pagecolor="#ffffff"
     bordercolor="#000000"
     borderopacity="0.25"
     inkscape:showpageshadow="2"
     inkscape:pageopacity="0.0"
     inkscape:pagecheckerboard="0"
     inkscape:deskcolor="#d1d1d1"
     inkscape:document-units="mm"
     inkscape:zoom="0.5"
     inkscape:cx="3591"
     inkscape:cy="161"
     inkscape:window-width="1920"
     inkscape:window-height="974"
     inkscape:window-x="-11"
     inkscape:window-y="-11"
     inkscape:window-maximized="1"
     inkscape:current-layer="layer1"
     inkscape:export-bgcolor="#ffffffff" /><defs
     id="defs1" /><g
     inkscape:label="Layer 1"
     inkscape:groupmode="layer"
     id="layer1"
     transform="translate(4317.1876,752.75156)"><rect
       style="fill:#000000;stroke-width:0.264999"
       id="rect12"
       width="220.01627"
       height="211.03601"
       x="-4317.188"
       y="-752.75153" /><path
       style="fill:#ccff00"
       d="m -4212.8256,-586.74108 c -1.2369,-0.0461 -4.9278,-0.26462 -8.2021,-0.48562 -3.2742,-0.221 -10.7156,-0.46344 -16.5364,-0.53875 -5.8209,-0.0753 -11.948,-0.20605 -13.616,-0.29052 -3.0185,-0.15286 -3.0368,-0.1578 -3.9386,-1.05959 -0.8622,-0.86223 -0.8989,-0.97516 -0.7583,-2.33749 l 0.1478,-1.43149 -2.5851,-0.80311 c -5.5772,-1.73269 -9.073,-4.13676 -10.4957,-7.21786 -0.696,-1.50714 -0.7681,-1.92745 -0.7626,-4.44275 0,-2.26756 0.1101,-3.00564 0.5721,-4.01611 1.0203,-2.23154 3.0938,-2.63792 5.9197,-1.16026 0.749,0.39164 1.403,0.67093 1.4533,0.62062 0.05,-0.0503 -0.1965,-1.22572 -0.5486,-2.61204 -1.3749,-5.41472 -1.8471,-12.52061 -1.1763,-17.70304 0.9275,-7.16588 4.4389,-15.09507 9.6077,-21.69583 0.7407,-0.94589 3.796,-4.22011 6.7896,-7.27605 5.9653,-6.08958 7.1546,-7.65642 7.3492,-9.68244 0.1046,-1.08859 -0.015,-1.59322 -0.7188,-3.02207 -0.4645,-0.9434 -0.9263,-1.71522 -1.0263,-1.71515 -0.1,7e-5 -0.896,1.45859 -1.7689,3.24115 -3.0901,6.31085 -5.2642,9.38421 -7.7741,10.98974 -5.7302,3.66557 -16.7908,7.58908 -19.9089,7.06227 -1.3071,-0.22083 -1.9584,-1.2782 -1.6868,-2.73845 0.4172,-2.24355 4.2662,-8.65878 7.9597,-13.26663 2.3938,-2.98644 8.5149,-9.09116 10.8263,-10.7973 1.0186,-0.75191 2.6527,-1.75473 3.6313,-2.22849 1.8724,-0.90648 2.5011,-1.56772 0.8005,-0.8419 -0.5457,0.23291 -1.2769,0.53559 -1.6248,0.67263 -0.8013,0.31562 -4.5904,2.80081 -5.9737,3.91793 -0.5775,0.46641 -2.423,2.18338 -4.101,3.8155 -4.7972,4.66587 -7.4803,6.42268 -10.7901,7.06506 -1.5464,0.30014 -3.8677,0.24291 -4.2145,-0.10389 -0.3004,-0.30036 1.2931,-4.76606 2.6439,-7.40916 2.4312,-4.75747 5.0648,-8.31187 9.5177,-12.84551 6.7283,-6.85017 12.034,-9.27061 22.0919,-10.07808 l 3.5145,-0.28215 1.7771,-1.43691 c 1.9305,-1.56087 5.5329,-3.44651 8.2595,-4.32331 3.7963,-1.2208 6.1312,-1.4969 12.5677,-1.4861 6.4406,0.0108 9.6279,0.37975 15.7983,1.82881 3.7155,0.87257 4.951,1.5547 5.7652,3.1832 0.6066,1.21304 0.6589,1.59763 0.6306,4.63021 -0.023,2.42633 -0.1747,3.83587 -0.5708,5.29167 -1.5227,5.59644 -2.545,7.0082 -8.5115,11.75444 -6.2079,4.93821 -7.2821,6.38786 -7.2879,9.83484 0,1.87782 0,1.87782 1.8848,4.66601 2.7739,4.0967 3.0493,4.96947 3.2784,10.3895 0.211,4.98815 0.4712,5.98885 2.6431,10.16354 1.4349,2.75814 2.6482,4.11835 4.5129,5.05965 1.9042,0.96124 3.2508,2.11703 3.6834,3.16146 0.1931,0.46619 0.2839,1.4882 0.2205,2.483 -0.085,1.34083 -0.2604,1.89106 -0.8461,2.65892 -1.679,2.20126 -4.1856,3.01826 -6.6665,2.17291 -0.6868,-0.23399 -2.3213,-1.09215 -3.6324,-1.907 -2.1467,-1.3342 -4.1551,-2.09345 -4.1551,-1.57078 0,0.10903 0.7699,0.95318 1.711,1.8759 6.9725,6.83656 5.4099,18.8226 -3.6945,28.3391 -0.9304,0.97248 -1.6412,1.8498 -1.5795,1.9496 0.1838,0.29738 2.8938,1.20147 7.526,2.51077 6.2515,1.76701 9.2661,3.44254 9.2661,5.15012 0,1.3585 -2.451,2.94499 -5.5194,3.57261 -2.6384,0.53966 -8.0021,0.88167 -11.6785,0.74467 z m 21.3562,-10.88737 c -5.4885,-5.504 -9.9791,-10.16307 -9.9791,-10.35349 0,-0.19042 0.351,-1.37238 0.78,-2.62658 1.3641,-3.98786 1.7034,-8.20169 0.9398,-11.67307 -0.2081,-0.94589 -0.3825,-1.80909 -0.3876,-1.91823 -0.01,-0.10914 0.4454,-0.19844 1.001,-0.19844 4.6881,0 9.0345,-4.20421 9.0413,-8.74544 0,-3.12712 -1.6887,-5.54597 -5.2575,-7.51006 -1.7051,-0.93843 -2.0806,-1.2873 -2.9614,-2.75124 -0.5547,-0.92209 -1.3978,-2.58896 -1.8735,-3.70416 -0.8022,-1.88048 -0.8723,-2.28207 -0.9672,-5.53337 l -0.1022,-3.50573 5.6483,-0.005 c 6.6211,-0.006 8.801,-0.2627 10.6133,-1.2491 2.4665,-1.34241 3.4137,-3.31577 3.462,-7.21232 0.052,-4.16979 -1.242,-6.67211 -4.1159,-7.96174 -1.3449,-0.60349 -1.711,-0.63391 -9.2058,-0.76514 l -7.8052,-0.13667 1.0277,-0.79375 c 6.9349,-5.35583 8.6649,-7.42837 10.2205,-12.24397 1.7349,-5.37114 2.0342,-10.66289 0.7876,-13.92829 -0.7308,-1.9143 -2.312,-3.68672 -3.9257,-4.40054 -1.4309,-0.63296 -5.2225,-1.60076 -8.9039,-2.2727 -1.7586,-0.32099 -2.3796,-0.51567 -1.8521,-0.58059 1.7017,-0.20938 22.0789,0.19272 24.0771,0.47511 10.2144,1.44351 17.4279,4.54002 22.9541,9.85344 7.519,7.22956 11.1378,17.84744 11.1183,32.62254 -0.017,12.53523 -2.5364,21.80914 -7.8444,28.8703 -1.6715,2.22357 -5.3769,5.70938 -7.5931,7.14301 -2.577,1.66703 -6.8347,3.65359 -9.3745,4.37392 -1.1641,0.33018 -2.171,0.64004 -2.2375,0.68857 -0.067,0.0485 7.9699,8.17968 17.8586,18.06924 l 17.9796,17.981 h -21.5718 -21.5718 z"
       id="path12" /></g></svg>
