<?xml version="1.0" encoding="UTF-8" standalone="no"?>
<!-- Created with Inkscape (http://www.inkscape.org/) -->

<svg
   width="303.88687mm"
   height="426.56213mm"
   viewBox="0 0 303.88688 426.56214"
   version="1.1"
   id="svg1"
   inkscape:version="1.4.2 (f4327f4, 2025-05-13)"
   sodipodi:docname="path3-2.svg"
   xml:space="preserve"
   inkscape:export-filename="HOUSSEM 6.svg"
   inkscape:export-xdpi="96"
   inkscape:export-ydpi="96"
   xmlns:inkscape="http://www.inkscape.org/namespaces/inkscape"
   xmlns:sodipodi="http://sodipodi.sourceforge.net/DTD/sodipodi-0.dtd"
   xmlns="http://www.w3.org/2000/svg"
   xmlns:svg="http://www.w3.org/2000/svg"><sodipodi:namedview
     id="namedview1"
     pagecolor="#ffffff"
     bordercolor="#000000"
     borderopacity="0.25"
     inkscape:showpageshadow="2"
     inkscape:pageopacity="0.0"
     inkscape:pagecheckerboard="0"
     inkscape:deskcolor="#d1d1d1"
     inkscape:document-units="mm"
     inkscape:zoom="0.5"
     inkscape:cx="3591"
     inkscape:cy="161"
     inkscape:window-width="1920"
     inkscape:window-height="974"
     inkscape:window-x="-11"
     inkscape:window-y="-11"
     inkscape:window-maximized="1"
     inkscape:current-layer="layer1"
     inkscape:export-bgcolor="#ffffffff" /><defs
     id="defs1" /><g
     inkscape:label="Layer 1"
     inkscape:groupmode="layer"
     id="layer1"
     transform="translate(5563.7505,981.74803)"><rect
       style="fill:#000000;stroke-width:0.264999"
       id="rect9"
       width="303.88672"
       height="426.56216"
       x="-5563.7505"
       y="-981.74805" /><g
       inkscape:label="Layer 1"
       id="layer1-2"
       transform="translate(-5046.533,-864.3494)"
       style="fill:#ffffff"><rect
         style="fill:#ffffff;fill-opacity:0;stroke-width:0.264999"
         id="rect211"
         width="312.81223"
         height="302.5213"
         x="-336.75961"
         y="-47.894699" /><path
         style="fill:#ffffff"
         d="m -441.58912,194.0986 c -0.36381,-0.066 -1.7289,-0.30649 -3.03355,-0.5345 -2.5243,-0.44115 -5.16971,-1.33216 -6.73013,-2.26677 -2.11856,-1.26893 -4.05602,-3.15425 -3.65431,-3.55596 0.0653,-0.0653 1.14544,0.17891 2.40042,0.54259 9.65776,2.79871 20.82362,0.0244 32.18423,-7.99668 2.98114,-2.1048 9.59782,-8.47639 12.28384,-11.82883 8.29557,-10.35374 14.25177,-23.84217 17.3499,-39.29063 0.72171,-3.59875 1.2559,-7.32852 1.83786,-12.83229 0.59049,-5.58443 0.62226,-17.497348 0.0451,-16.920668 -0.09,0.0899 -0.24181,2.207418 -0.33741,4.705608 -0.21588,5.64078 -0.68148,12.19184 -1.028,14.46402 -0.14425,0.94589 -0.38845,2.55323 -0.54266,3.57188 -0.1542,1.01864 -0.38066,2.32833 -0.50322,2.91041 -0.12257,0.58209 -0.36394,1.77271 -0.53639,2.64584 -0.55958,2.8333 -2.32558,9.19532 -3.29686,11.877 -4.03909,11.15178 -11.83607,20.36543 -22.00323,26.00109 -5.59965,3.10389 -10.43898,4.7067 -15.83664,5.24516 -0.87313,0.0871 -1.97446,0.21829 -2.4474,0.29153 -0.65662,0.10168 -0.8599,0.0365 -0.8599,-0.27571 0,-0.22487 0.1705,-0.40886 0.37888,-0.40886 0.7008,0 7.13564,-3.39033 10.05455,-5.29745 6.9237,-4.52372 11.78573,-9.07239 16.5905,-15.52124 6.74183,-9.04873 11.71598,-20.56571 14.20584,-32.89173 0.16167,-0.80037 0.41357,-2.05052 0.55978,-2.77813 1.20708,-6.00716 2.11315,-19.628978 1.33754,-20.108338 -0.16489,-0.10191 -0.26459,0.42059 -0.26459,1.3867 0,4.01531 -0.81061,11.539158 -1.87453,17.398728 -0.67607,3.7235 -1.02217,5.12715 -2.25074,9.12812 -1.30604,4.25331 -2.19688,6.5913 -3.46493,9.09367 -0.77978,1.53883 -1.34904,1.35963 -0.78933,-0.24848 1.20898,-3.47357 2.70063,-13.30701 2.1084,-13.89924 -0.19749,-0.19749 -0.38009,0.13668 -0.61749,1.13005 -0.52183,2.1835 -2.42903,6.58797 -3.84123,8.87095 -1.3765,2.22526 -4.35121,5.49969 -6.08902,6.70253 -2.34112,1.62043 -5.40613,2.86856 -5.40613,2.20148 0,-0.0946 0.63018,-0.77919 1.4004,-1.52136 4.61977,-4.45149 8.67815,-12.31663 10.21923,-19.80484 0.93518,-4.54409 1.08037,-5.93482 1.08037,-10.34838 0,-5.376168 -0.53183,-9.059358 -1.40803,-9.751348 -0.97796,-0.77235 -6.27975,-3.53669 -8.5829,-4.4751 -1.58351,-0.64519 -2.22707,-1.04581 -2.33579,-1.45403 -0.1707,-0.6409 0.74716,-3.95328 1.30796,-4.72022 0.34058,-0.46577 0.4671,-0.47913 1.52786,-0.16132 1.85064,0.55446 7.50857,3.59514 9.89407,5.31726 1.20601,0.87062 2.33065,1.58295 2.49921,1.58295 0.40722,0 -0.5709,-1.71766 -1.65952,-2.91428 -1.25831,-1.38314 -2.69251,-2.43276 -5.75864,-4.2145 -2.47895,-1.44052 -2.90485,-1.60158 -4.21416,-1.59367 -1.53824,0.009 -2.15007,0.33869 -2.93237,1.5787 -0.59396,0.94148 -1.27304,3.16603 -1.51169,4.95208 -0.31463,2.35459 -0.25497,2.45626 1.44149,2.45626 1.68584,0 1.77767,0.35207 0.29282,1.12264 -1.16703,0.60563 -2.66157,0.41056 -3.53331,-0.46118 -1.20348,-1.20347 -1.12176,-6.57687 0.1441,-9.47573 0.71988,-1.64854 2.24799,-3.28537 3.25661,-3.4883 1.91865,-0.38602 1.9557,-0.41123 1.33879,-0.91078 -0.30184,-0.24441 -0.75506,-0.85398 -1.00715,-1.35458 -1.09717,-2.17876 -3.133,-4.434144 -7.94164,-8.798074 -9.40887,-8.53872 -13.82111,-15.22015 -14.95138,-22.6408 -0.45405,-2.98101 -0.21137,-7.2832 0.49726,-8.8154 l 0.52595,-1.13718 -0.14964,2.27717 c -0.098,1.49089 -0.0517,2.33771 0.13409,2.45251 0.17998,0.11123 0.34185,-0.28607 0.44269,-1.08654 0.47787,-3.79323 1.66289,-6.83999 4.33785,-11.15286 0.75663,-1.21993 1.33513,-2.25861 1.28556,-2.30819 -0.23487,-0.23486 -3.17037,3.11677 -3.94664,4.50609 -0.48166,0.86204 -0.9948,1.51688 -1.14032,1.45521 -0.5474,-0.23201 -0.13402,-3.17335 0.79433,-5.65197 0.509,-1.35899 0.92546,-2.66278 0.92546,-2.8973 0,-0.53386 -0.36285,-0.54874 -0.79133,-0.0324 -0.59269,0.71414 -0.78013,0.13827 -0.24836,-0.76303 0.3092,-0.52404 0.54597,-1.46282 0.58203,-2.3077 l 0.0608,-1.42428 h -1.5875 c -1.31947,0 -1.90906,-0.16752 -3.49205,-0.99218 -1.0475,-0.54571 -2.26086,-0.99219 -2.69636,-0.99219 -0.91248,0 -1.11902,-0.21972 -0.92042,-0.97915 0.10573,-0.40431 0.56989,-0.65772 1.82898,-0.99854 1.888,-0.51106 2.09392,-0.68874 3.03089,-2.61534 0.6433,-1.3227596 0.69549,-1.3622896 1.90152,-1.4400596 1.60961,-0.10379 1.89313,0.3873596 1.9171,3.3210896 0.01,1.20054 0.0781,2.1828 0.15185,2.18281 0.0737,1e-5 0.28207,-0.47435 0.46302,-1.05414 0.76453,-2.44965 0.14739,-5.9194296 -1.59929,-8.9917496 -1.03058,-1.812749 -4.49974,-5.47290895 -5.73867,-6.05462895 -0.88297,-0.41459005 -0.93608,-0.51463005 -1.00966,-1.90189005 -0.0623,-1.17442 0.043,-1.64341 0.53218,-2.36924 1.18456,-1.75777 4.1296,-3.4573201 6.61355,-3.8166101 0.47819,-0.0692 1.36839,-0.20623 1.97822,-0.30459 1.3861,-0.22357 4.92634,0.26379 7.33865,1.0102601 2.51863,0.77936 7.42701,3.32857 12.32236,6.39972 8.81667,5.53123 14.14505,7.329769 18.38854,6.206879 1.81413,-0.48004 2.51354,-0.569839 2.51354,-0.32272 0,0.46839 -2.53206,2.71537 -3.52547,3.12854 -1.39882,0.58179 -3.95344,0.76456 -5.98402,0.42814 -0.93736,-0.15529 -1.74846,-0.23819 -1.80243,-0.18422 -0.28631,0.28631 1.81485,0.95155 3.48289,1.1027 1.43011,0.12959 2.30285,0.0609 3.44538,-0.27126 0.84156,-0.24465 1.59043,-0.3845 1.66415,-0.31079 0.0737,0.0737 -0.12152,0.54753 -0.43386,1.0529 -0.67874,1.09823 -2.04226,1.9554696 -3.4747,2.1845196 -0.57467,0.0919 -1.04485,0.2495 -1.04485,0.35023 0,0.10072 0.41256,0.66513 0.91681,1.25423 0.50425,0.5891 0.85674,1.13116 0.78333,1.20457 -0.26023,0.26023 -2.63978,-0.14228 -3.55223,-0.60086 -0.89296,-0.44879 -2.77254,-2.29047 -4.83157,-4.7341296 -1.29202,-1.53338 -1.52612,-1.25179 -0.33643,0.40471 1.49993,2.0884696 2.45926,4.1228596 2.80268,5.9434696 0.33509,1.77637 1.33646,4.30278 1.82518,4.60482 0.44927,0.27767 0.0657,0.63301 -0.51845,0.48026 -0.62121,-0.16245 -0.73386,0.48226 -0.16654,0.95309 0.39114,0.32463 1.35216,2.63565 1.17124,2.81657 -0.0605,0.0605 -0.75769,-0.14022 -1.54938,-0.44597 -2.46077,-0.95035 -3.99118,-1.27845 -6.7311,-1.44308 -6.20262,-0.37268 -10.42199,1.94516 -12.95524,7.11677 -2.30394,4.70345 -2.2148,10.25764 0.28324,17.64894 0.77169,2.28329 3.45078,7.97674 4.66881,9.92188 6.7043,10.70644 17.07098,20.976414 30.88965,30.601504 1.96453,1.36835 3.98859,2.74384 4.49791,3.05664 1.19441,0.73354 5.68796,5.3377 7.04654,7.21998 1.416,1.96185 2.56646,3.874888 4.13698,6.879178 0.72269,1.38245 1.87689,3.5851 2.5649,4.89479 0.688,1.30969 1.46762,2.97656 1.73248,3.70417 0.66082,1.81534 0.85525,1.95453 1.07726,0.77113 0.27285,-1.45444 -0.0805,-10.78152 -0.55013,-14.519418 -0.21869,-1.74072 -0.39761,-3.32186 -0.39761,-3.51365 0,-0.56589 1.52531,0.70627 1.70495,1.42198 0.0865,0.34453 0.27401,0.62641 0.41676,0.62641 0.74146,0 -0.15802,-4.01901 -1.9245,-8.59896 -0.72966,-1.89177 -1.4229,-3.56264 -1.54054,-3.71304 -0.11765,-0.1504 -0.1287,-0.41132 -0.0246,-0.57982 0.21249,-0.34382 2.19139,0.42645 3.0184,1.17488 0.25817,0.23364 0.53645,0.35775 0.61841,0.27579 0.17552,-0.17552 -0.40175,-2.30679 -0.7496,-2.76751 -0.13207,-0.17492 -0.16273,-0.56187 -0.0681,-0.8599 0.17118,-0.53935 0.25858,-0.54186 18.83523,-0.54186 15.93695,0 18.89264,-0.0594 20.23355,-0.40691 4.49465,-1.16468 7.12573,-4.39632 7.63904,-9.38268 0.2679,-2.602484 -0.0792,-6.104784 -0.79317,-8.002764 -1.14956,-3.05603 -4.09805,-5.35624 -7.72535,-6.02678 -0.87139,-0.16109 -8.82731,-0.23539 -20.72582,-0.19356 l -19.31154,0.0679 -0.0443,9.34882 c -0.0244,5.141854 -0.11087,9.415384 -0.19221,9.496724 -0.0813,0.0813 -0.2257,-0.0775 -0.32078,-0.35299 -1.38244,-4.00553 -5.98256,-14.266084 -9.95147,-22.196724 -4.86375,-9.71869 -7.61663,-13.90687 -14.02558,-21.33825 -1.7858,-2.07068 -3.65424,-4.2484 -4.15208,-4.83936 -0.49785,-0.59096 -1.40192,-1.61026 -2.00905,-2.2651 -1.10949,-1.19669 -2.39762,-3.77258 -2.11513,-4.22966 0.0833,-0.13483 0.31425,-0.1827 0.51315,-0.10637 0.5791,0.22222 0.75592,-0.38809 0.25699,-0.88702 -0.56401,-0.56402 -1.89028,-3.36031 -2.10314,-4.43424 l -0.15732,-0.79375 3.32866,-0.0159 c 3.41642,-0.0163 4.47008,-0.29639 3.35676,-0.89222 -0.51251,-0.27429 -1.88554,-2.04197 -1.88554,-2.4275 0,-0.0935 0.33309,-0.23671 0.7402,-0.31813 0.4071,-0.0814 1.43763,-0.81817 2.29005,-1.63721 l 1.54987,-1.4891696 34.68546,0.10255 c 37.26047,0.11017 36.40076,0.0809 44.47505,1.5150396 12.87507,2.28689 24.14418,8.38245 30.8632,16.69418 6.96464,8.61559 10.45181,17.89281 12.1746,32.38921 0.21801,1.83448 0.33997,5.89371 0.32989,10.98021 -0.0174,8.800394 -0.46729,13.614674 -1.84749,19.771534 -4.99112,22.264608 -18.89449,35.398938 -41.91708,39.598538 -6.89541,1.25781 -7.80161,1.30007 -31.35312,1.46188 l -22.48959,0.15452 v 24.20938 c 0,15.8336 -0.0915,24.27663 -0.26458,24.40376 -0.14552,0.10691 -8.21111,0.19621 -17.92354,0.19844 l -17.65895,0.004 -2.54917,2.14328 c -7.23694,6.08467 -14.06861,9.38037 -23.29938,11.23996 -1.9998,0.40287 -11.29057,0.75384 -12.78458,0.48295 z m 60.88626,-65.3938 c 0.51912,-3.67117 0.45774,-11.08274 -0.12592,-15.20528 -0.44932,-3.17366 -2.06263,-10.38885 -2.39791,-10.72412 -0.52412,-0.52414 -0.46297,0.37599 0.76847,11.31117 0.20485,1.81901 0.4415,5.33136 0.5259,7.80521 0.22193,6.50516 0.42447,9.39271 0.65884,9.39271 0.11321,0 0.36999,-1.16086 0.57062,-2.57969 z M -428.74492,2.4192294 c 0.71087,-0.78551 0.6482,-2.30880995 -0.1206,-2.93133995 -1.76999,-1.43326005 -4.0987,0.41891 -3.05771,2.43196995 0.43066,0.8328 0.72125,0.99154 1.86862,1.02081 0.50973,0.013 1.00419,-0.18386 1.30969,-0.52144 z M -368.45499,104.8923 c -0.23417,-0.78094 -1.71442,-3.56483 -2.63784,-4.960948 -0.85619,-1.29446 -7.25493,-8.89594 -12.58368,-14.94895 -1.47325,-1.67349 -3.33873,-3.81662 -4.1455,-4.7625 -0.80678,-0.94589 -2.8542,-3.08902 -4.54983,-4.7625 -4.91495,-4.850784 -6.40705,-6.789424 -9.52578,-12.376554 -2.35633,-4.22132 -2.76121,-4.36668 -1.17786,-0.42285 2.40433,5.98868 4.27143,8.7064 11.21976,16.331224 5.1851,5.68994 5.19644,5.91786 0.10677,2.14687 -5.79071,-4.29041 -6.44851,-4.8534 -11.09903,-9.49931 -6.04976,-6.043784 -8.98059,-10.022054 -11.91937,-16.179214 -1.54085,-3.22829 -2.90338,-7.56836 -3.14896,-10.03038 -0.0871,-0.87313 -0.22318,-1.88516 -0.30242,-2.24896 l -0.14406,-0.66146 -0.26002,0.66146 c -0.14812,0.37678 -0.18765,1.59097 -0.0919,2.82128 0.0956,1.22785 0.0633,2.22461 -0.0748,2.30997 -0.2839,0.17545 -1.38198,-2.77106 -2.1527,-5.7764 -0.60742,-2.36855 -0.71283,-5.91377 -0.24201,-8.13923 0.92787,-4.38582 3.999,-7.98362 7.64087,-8.95121 1.28685,-0.3419 4.21101,-0.40883 5.61256,-0.12847 7.74938,1.55016 15.75721,9.3187 25.15315,24.40151 1.56001,2.5042 2.83637,4.61232 2.83637,4.68471 0,0.0724 0.37256,0.76195 0.82791,1.53234 3.84533,6.50576 12.07,25.253434 11.38102,25.942404 -0.35149,0.3515 -4.53125,-1.52865 -7.25063,-3.2615 -4.70359,-2.99723 -9.78002,-7.443824 -14.25095,-12.482804 -1.90446,-2.14643 -3.5215,-3.9026 -3.59343,-3.9026 -0.52934,0 4.60236,6.89931 7.12028,9.572864 3.21044,3.40888 7.56694,6.84662 10.97925,8.6638 1.7761,0.94584 2.14038,1.44004 4.94107,6.70332 1.05384,1.98045 1.87404,4.69335 1.41896,4.69335 -0.22913,0 -3.12154,-2.91733 -4.79828,-4.83962 -0.85754,-0.98313 -1.61636,-1.73033 -1.68625,-1.66044 -0.0699,0.0699 0.54754,1.25761 1.37207,2.63938 3.08273,5.1661 5.41471,11.42874 5.64799,15.167898 0.0981,1.57317 0.0494,2.18654 -0.17377,2.18654 -0.1706,0 -0.37266,-0.20836 -0.44902,-0.46302 z m -10.59232,-40.230812 c 0.0723,-0.11692 -0.83952,-0.85473 -2.02617,-1.63958 -2.52785,-1.67191 -5.35458,-4.115 -8.12814,-7.02501 -1.09141,-1.14509 -2.52693,-2.6421 -3.19004,-3.32667 -0.66312,-0.68457 -2.07979,-2.56669 -3.14817,-4.1825 -1.06837,-1.6158 -1.98643,-2.8939 -2.04011,-2.84021 -0.0537,0.0537 0.51624,1.30644 1.2665,2.7839 1.43844,2.83262 1.56166,3.47509 1.17327,6.11749 -0.38126,2.59379 -1.11824,3.11997 -3.00168,2.14308 -1.1114,-0.57645 -4.40391,-3.86087 -5.43062,-5.41726 -0.76904,-1.1658 -0.78032,-1.14986 -1.09185,1.5436 -0.33118,2.86341 -1.65168,3.32778 -3.62262,1.27396 -1.69712,-1.76849 -2.1828,-2.55808 -3.01084,-4.89479 -0.83018,-2.34276 -1.33749,-2.69734 -1.10991,-0.77578 0.35916,3.03253 2.6338,6.80398 4.59881,7.62501 1.77026,0.73967 3.29735,0.17321 3.68378,-1.36645 0.0903,-0.35978 0.28402,-0.65414 0.4305,-0.65414 0.14648,0 1.25856,0.93923 2.47128,2.08717 2.56578,2.42873 3.96948,3.088 5.54517,2.60441 1.21728,-0.3736 1.71403,-1.30772 1.71403,-3.22323 0,-1.72752 0.4096,-1.92327 1.36894,-0.65421 2.36639,3.13039 7.48366,7.32652 11.2803,9.24978 1.58492,0.80286 2.05182,0.92052 2.26757,0.57143 z m -41.50685,25.195654 c -2.07325,-1.08077 -2.6115,-2.17066 -2.46293,-4.98721 0.17091,-3.24033 1.80084,-6.27681 3.77143,-7.02603 0.92822,-0.3529 2.97765,-0.34694 3.19783,0.009 0.0949,0.15353 -0.41531,0.90068 -1.13376,1.66033 -1.80832,1.91204 -2.53417,3.89333 -2.34058,6.38893 0.36597,4.71787 0.37388,4.68755 -1.03199,3.95468 z m -11.96206,-2.82422 c -1.17134,-1.28103 -1.5138,-2.3465 -1.50951,-4.69636 0.005,-2.72647 0.63172,-4.2456 2.39015,-5.79344 1.34386,-1.1829 1.48361,-1.53178 0.38628,-0.96433 -1.15511,0.59733 -2.60009,2.51631 -3.21777,4.27331 -0.62059,1.76526 -0.57627,4.01054 0.10618,5.37853 0.48901,0.98024 0.18915,1.22977 -0.83895,0.69812 -1.82017,-0.94125 -2.62749,-2.7317 -2.33714,-5.18327 0.4409,-3.72271 4.15869,-7.20152 6.48529,-6.06841 0.41801,0.20358 1.73554,0.35263 3.2209,0.36438 2.19019,0.0173 2.68571,0.1107 3.85188,0.72583 1.7513,0.92378 3.20076,2.26831 2.83723,2.63184 -0.18601,0.18601 -0.63522,0.17394 -1.42322,-0.0383 -1.37842,-0.37117 -5.00131,-0.003 -5.00131,0.50808 0,0.0985 0.92274,0.38757 2.05052,0.64225 2.79023,0.63011 2.81861,0.65391 2.2891,1.91867 -0.23924,0.57144 -0.50985,1.87242 -0.60136,2.89107 -0.188,2.0927 -0.001,1.99178 -2.95025,1.59374 -1.38113,-0.18642 -1.48029,-0.16105 -1.815,0.46437 -0.70868,1.32418 -2.96607,1.70043 -3.92302,0.65387 z m 3.337,-1.09375 c 0.24631,-0.29678 0.12631,-0.39944 -0.63356,-0.542 -1.13568,-0.21305 -1.61343,0.005 -1.17346,0.53482 0.3963,0.47752 1.41333,0.48156 1.80702,0.007 z m -15.65593,-65.482144 c -2.06601,-2.28683 -3.28414,-5.2606 -3.52824,-8.61334 -0.33072,-4.5426196 0.82453,-7.6980596 3.87031,-10.5712886 1.02055,-0.96272995 1.97237,-1.75042995 2.11517,-1.75042995 0.57111,0 0.1941,0.78629 -1.06924,2.22997995 -1.59289,1.82029 -2.30595,3.146639 -2.52196,4.691059 -0.18839,1.3469 0.0563,1.12042 1.08645,-1.00571 0.73659,-1.52021 2.63853,-3.425999 3.67991,-3.687369 0.98847,-0.24809 2.13258,0.32482 3.30219,1.65357 1.06922,1.214709 3.1906,4.601899 3.1906,5.094419 0,0.15646 -0.45349,0.28447 -1.00776,0.28447 -1.31923,0 -1.80935,0.39341 -2.65653,2.1323296 -0.672,1.37935 -0.77325,1.46312 -2.42112,2.00334 -2.3963,0.78558 -2.75155,1.51014 -2.73717,5.58262 0.006,1.63994 -0.0765,2.98171 -0.18287,2.98171 -0.10636,0 -0.61025,-0.46141 -1.11974,-1.02536 z"
         id="path26" /></g></g></svg>
