<?xml version="1.0" encoding="UTF-8" standalone="no"?>
<!-- Created with Inkscape (http://www.inkscape.org/) -->

<svg
   width="287.36798mm"
   height="247.33276mm"
   viewBox="0 0 287.36799 247.33276"
   version="1.1"
   id="svg1"
   inkscape:version="1.4.2 (f4327f4, 2025-05-13)"
   sodipodi:docname="path3-2.svg"
   xml:space="preserve"
   inkscape:export-filename="HOUSSEM 6.svg"
   inkscape:export-xdpi="96"
   inkscape:export-ydpi="96"
   xmlns:inkscape="http://www.inkscape.org/namespaces/inkscape"
   xmlns:sodipodi="http://sodipodi.sourceforge.net/DTD/sodipodi-0.dtd"
   xmlns="http://www.w3.org/2000/svg"
   xmlns:svg="http://www.w3.org/2000/svg"><sodipodi:namedview
     id="namedview1"
     pagecolor="#ffffff"
     bordercolor="#000000"
     borderopacity="0.25"
     inkscape:showpageshadow="2"
     inkscape:pageopacity="0.0"
     inkscape:pagecheckerboard="0"
     inkscape:deskcolor="#d1d1d1"
     inkscape:document-units="mm"
     inkscape:zoom="0.5"
     inkscape:cx="3591"
     inkscape:cy="161"
     inkscape:window-width="1920"
     inkscape:window-height="974"
     inkscape:window-x="-11"
     inkscape:window-y="-11"
     inkscape:window-maximized="1"
     inkscape:current-layer="layer1"
     inkscape:export-bgcolor="#ffffffff" /><defs
     id="defs1" /><g
     inkscape:label="Layer 1"
     inkscape:groupmode="layer"
     id="layer1"
     transform="translate(4759.4654,1017.2964)"><rect
       style="fill:#ffffff;stroke-width:0.264999"
       id="rect10"
       width="287.36816"
       height="247.33275"
       x="-4759.4658"
       y="-1017.2964" /><path
       style="fill:#000000"
       d="m -4687.7,-815.24934 c 0,-8.99084 -0.2483,-8.32775 2.6543,-7.089 2.1907,0.93492 4.7982,2.69861 5.6598,3.82821 0.9641,1.26406 1.7417,3.16057 1.9228,4.68996 0.087,0.73263 0.2758,1.29271 0.42,1.24463 0.2977,-0.0992 1.595,-4.17049 2.0853,-6.54402 1.0164,-4.92096 -2.8641,-9.42162 -10.7269,-12.44132 l -1.883,-0.72317 -0.07,-8.89684 c -0.038,-4.89327 -0.031,-8.89685 0.016,-8.89685 0.047,0 0.5549,0.22163 1.128,0.49251 0.573,0.27087 3.5071,1.22514 6.5203,2.12058 8.4148,2.50072 11.7615,4.12662 13.571,6.59329 0.8509,1.15981 1.851,3.62754 2.0367,5.02546 0.1552,1.16825 0.58,0.59236 1.3629,-1.8479 0.6592,-2.05448 0.7936,-2.92197 0.8121,-5.24019 0.025,-3.08855 -0.1056,-3.47428 -1.9108,-5.65878 -2.0473,-2.47752 -4.1565,-3.67368 -11.727,-6.65041 -6.0138,-2.36461 -8.5768,-3.71134 -10.4833,-5.50827 l -1.389,-1.3093 5e-4,-9.42047 5e-4,-9.42048 1.7259,-5.15937 c 2.3829,-7.12362 2.3574,-6.73482 0.5694,-8.67973 -0.8063,-0.8771 -1.6533,-1.95674 -1.8821,-2.39919 -0.3736,-0.72255 -0.4091,-4.75891 -0.3489,-39.6435 l 0.067,-38.83904 71.7021,0.0996 c 39.4361,0.0548 71.7359,0.12829 71.7772,0.16334 0.073,0.0623 -2.1175,4.10104 -9.4742,17.46414 -3.8189,6.93698 -16.0224,29.15757 -18.3815,33.46979 -0.7563,1.38245 -3.6391,6.6212 -6.4062,11.64167 -2.7671,5.02047 -6.0422,10.97359 -7.278,13.22917 -2.5586,4.66977 -5.0424,9.19159 -11.2635,20.50521 -2.4006,4.36562 -5.1073,9.30671 -6.015,10.9802 -0.9077,1.67349 -2.7859,5.09654 -4.1739,7.60678 -1.3879,2.51023 -2.444,4.56475 -2.3469,4.56559 0.097,8.5e-4 14.8808,0.0306 32.8526,0.0661 l 32.676,0.0646 0.068,24.01094 c 0.054,19.12758 0,24.00833 -0.2646,23.99815 -0.1827,-0.007 -32.5683,0.0686 -71.9681,0.16798 l -71.6359,0.18077 z m 34.1312,-35.20835 c 0,-0.19179 0.3409,-1.46469 0.7575,-2.82865 1.8637,-6.10131 1.0204,-9.34943 -3.2671,-12.58416 -2.0959,-1.58123 -3.1734,-2.10571 -9.1981,-4.47722 -6.9878,-2.75059 -8.9394,-3.796 -11.1175,-5.9555 -1.9707,-1.95378 -2.6404,-3.20005 -3.1108,-5.7891 -0.7584,-4.17427 0.3654,-9.57703 4.5165,-21.71295 1.423,-4.16008 1.4024,-4.42995 -0.4926,-6.45572 -0.9902,-1.05846 -1.9391,-2.4638 -2.66,-3.93934 l -1.1206,-2.29385 -1.2053,0.82925 c -0.6629,0.45609 -1.5641,1.20159 -2.0026,1.65666 -1.5378,1.59602 -4.7014,5.41795 -4.7014,5.67984 0,0.14551 1.4802,1.43496 3.2894,2.86544 1.8092,1.43048 3.4089,2.85761 3.5549,3.17141 0.2017,0.43341 0.019,1.578 -0.7602,4.7625 -1.9865,8.11836 -2.8841,12.42346 -3.1892,15.29619 -0.7573,7.12891 0.9076,12.68733 4.6454,15.50942 1.7792,1.3433 3.5908,2.11869 7.9916,3.42046 8.7128,2.57728 12.05,3.95005 14.1973,5.84017 1.4604,1.28553 2.9575,4.18579 3.229,6.25558 0.1,0.76122 0.2855,1.31974 0.4127,1.24116 0.1271,-0.0786 0.2311,-0.29979 0.2311,-0.49159 z m 37.1143,-11.42589 c 2.4537,-0.20177 2.7198,-0.46153 3.6266,-3.53999 0.3215,-1.09141 0.9552,-2.57969 1.4082,-3.30729 1.2193,-1.95831 1.1078,-2.71501 -1.0984,-7.45256 -1.0278,-2.20713 -2.697,-6.07666 -3.7093,-8.59895 -1.0123,-2.5223 -2.2079,-5.47896 -2.6567,-6.57037 -0.4489,-1.09141 -0.8166,-2.11679 -0.8171,-2.27863 -5e-4,-0.17944 0.3604,-0.25444 0.9251,-0.1922 0.5217,0.0575 0.9261,-0.0162 0.9261,-0.16877 0,-0.14895 -0.1206,-0.27082 -0.2679,-0.27082 -0.1474,0 -0.5696,-0.68213 -0.9383,-1.51585 -0.4513,-1.02043 -1.3441,-2.20943 -2.7317,-3.63802 -2.0455,-2.10597 -3.6371,-4.32234 -4.5639,-6.3555 -0.6124,-1.3434 -0.6092,-1.4964 0.045,-2.19907 0.6393,-0.68614 1.7945,-0.75392 2.921,-0.17137 0.4337,0.22423 0.904,0.33627 1.0452,0.24897 0.1413,-0.0873 0.2569,-0.80176 0.2569,-1.58769 0,-1.42897 0,-1.42897 -1.0584,-1.74606 -2.1093,-0.63195 -4.7625,0.81779 -4.7625,2.60228 0,1.18326 0.9731,3.42687 2.9215,6.73604 0.8845,1.50232 2.6084,4.75555 3.8307,7.2294 2.4538,4.96615 6.0944,14.11443 5.7528,14.45601 -0.211,0.21101 -3.7124,-5.92731 -5.8313,-10.22268 -0.945,-1.91579 -4.0228,-8.84186 -6.8968,-15.52026 -0.6049,-1.40563 -1.0998,-2.92959 -1.0998,-3.38658 0,-2.3615 3.2361,-5.03795 6.0913,-5.03795 0.4994,0 0.5437,-0.10028 0.3801,-0.85989 -0.3268,-1.51778 -2.3511,-4.97235 -2.8995,-4.94833 -0.1455,0.006 -1.6041,1.62201 -3.2412,3.5903 -3.4869,4.19233 -3.5337,4.35958 -1.9019,6.80318 0.591,0.88509 1.5106,2.50745 2.0435,3.60523 0.9425,1.9416 0.9732,2.10047 1.1258,5.83243 0.1885,4.60923 0.3388,4.98342 3.8941,9.69401 1.3028,1.72605 2.8981,3.97172 3.5451,4.99036 1.2099,1.90476 3.3981,5.81543 3.3981,6.07296 0,0.73568 -1.3046,-0.62634 -4.7771,-4.98733 -3.3805,-4.24548 -4.1009,-5.02252 -4.1701,-4.49791 -0.1083,0.81989 -0.5899,0.80468 -1.387,-0.0438 -1.0121,-1.07725 -2.091,-1.61356 -4.1916,-2.08348 -2.3346,-0.52225 -3.8379,-1.35207 -5.2763,-2.91252 -2.7679,-3.00286 -2.8353,-4.96426 -0.3006,-8.74582 1.6813,-2.50834 2.4565,-4.08789 2.4319,-4.95497 -0.011,-0.39841 0.09,-0.79301 0.2261,-0.87689 0.1358,-0.0839 0.2468,0.20198 0.2468,0.63523 0,0.99935 0.251,1.66436 0.5569,1.47532 0.3646,-0.22535 0.2807,-2.14393 -0.1376,-3.14506 -0.206,-0.49294 -0.6227,-1.02908 -0.9261,-1.19144 -0.523,-0.27991 -0.5518,-0.22968 -0.5573,0.97089 -0.01,1.87874 -0.7603,3.21659 -3.1168,5.54795 -2.3314,2.30649 -2.9628,3.46119 -2.9628,5.41828 0,2.29204 1.4597,4.25278 5.7483,7.72108 1.722,1.39254 2.077,1.5668 3.5719,1.75332 2.4527,0.30599 3.4836,0.84903 6.1393,3.23394 2.9021,2.60618 5.7071,5.45089 5.7071,5.78787 0,0.50166 -0.5047,0.20489 -2.5426,-1.49509 -3.1906,-2.66159 -3.8206,-2.86772 -1.9553,-0.63981 1.202,1.4356 1.2553,1.5875 0.5574,1.5875 -0.2754,0 -1.7059,-1.12656 -3.1788,-2.50348 -2.4917,-2.32938 -2.811,-2.5411 -4.5923,-3.04456 -4.0812,-1.15352 -4.6084,-1.34346 -5.7655,-2.07728 -2.8443,-1.80379 -4.759,-4.17935 -6.436,-7.9851 -1.0785,-2.44753 -1.6477,-3.43958 -1.9734,-3.43958 -0.3806,0 -1.3129,1.95519 -1.7664,3.70417 -1.4073,5.42732 -1.848,11.59492 -1.0479,14.66644 0.2218,0.85164 0.3302,1.6208 0.2408,1.70923 -0.2626,0.25997 -1.4266,-1.30196 -2.2462,-3.01421 -0.9102,-1.90131 -1.4259,-4.93936 -1.1853,-6.98141 0.8374,-7.10624 4.3395,-13.7133 9.4681,-17.86245 1.4261,-1.15381 1.5656,-1.80456 0.8417,-3.92907 -0.2283,-0.67003 -0.3772,-1.61398 -0.3308,-2.09766 0.083,-0.86734 0.1057,-0.84769 1.6353,1.43203 1.207,1.79881 1.5149,2.45523 1.3883,2.95974 -0.09,0.35656 -0.9453,1.40001 -1.9019,2.31876 -2.3927,2.29814 -3.0665,3.50016 -3.0571,5.45363 0.01,1.64217 0.7822,4.05048 1.3647,4.24467 0.2246,0.0749 0.2858,-0.0338 0.1776,-0.31559 -0.3692,-0.96214 -0.4857,-3.03764 -0.2237,-3.98634 0.3965,-1.43613 1.1733,-2.43319 3.3626,-4.31627 2.2319,-1.91975 3.2243,-3.58226 2.7541,-4.61411 -0.1595,-0.35011 -0.8942,-1.04874 -1.6327,-1.5525 -0.7385,-0.50377 -1.6536,-1.32352 -2.0336,-1.82168 -0.5982,-0.78422 -0.6895,-1.1579 -0.6807,-2.78499 0.01,-1.6892 0.1156,-2.06584 1.0523,-3.72446 1.0553,-1.86873 3.5677,-7.17161 3.5677,-7.53017 0,-0.21606 -2.6409,-0.79734 -3.6225,-0.79734 -0.864,0 -1.0953,0.70828 -1.8141,5.55625 -0.6667,4.4969 -0.8863,5.26554 -1.8221,6.37774 -0.3889,0.46212 -0.8018,1.53489 -1.0807,2.80748 -0.9584,4.37367 -1.5005,5.77016 -3.8297,9.86478 -4.0379,7.09846 -4.8931,9.91959 -4.6917,15.47812 0.1077,2.97304 0.2244,3.68705 0.8604,5.26402 0.4047,1.00344 1.2831,2.54362 1.952,3.42262 1.7515,2.30176 3.5169,3.39346 7.2668,4.49393 1.7271,0.50685 3.4927,1.1821 3.9234,1.50056 0.4307,0.31846 0.824,0.53814 0.874,0.48819 0.077,-0.0772 -1.3088,-3.22091 -1.9637,-4.45369 -0.1239,-0.23331 -0.5806,-0.39688 -1.108,-0.39688 -0.84,0 -0.9131,0.0716 -1.1464,1.12448 -0.1371,0.61847 -0.3472,1.12448 -0.467,1.12448 -0.5349,0 -1.2662,-1.77642 -1.2672,-3.07799 -8e-4,-1.10225 0.092,-1.38247 0.4913,-1.48694 0.2708,-0.0708 2.0269,0.38955 3.9026,1.02301 3.8015,1.28386 5.5154,1.44487 8.1302,0.7638 3.7137,-0.9673 6.1295,0.0472 7.1761,3.01357 0.488,1.38297 0.5091,2.14121 0.098,3.51385 -0.4846,1.61754 -1.3055,2.33612 -2.6688,2.33612 -0.957,0 -1.2877,-0.14519 -1.9587,-0.8599 -1.4833,-1.5797 -1.2316,-2.49857 0.4108,-1.49979 1.2763,0.77616 1.4766,0.61 0.5996,-0.49731 -0.4377,-0.5527 -1.4317,-1.3266 -2.2088,-1.71979 -3.1114,-1.57422 -6.4839,-0.49942 -5.6066,1.78681 0.1838,0.47905 1.6524,1.32595 1.889,1.08934 0.084,-0.0837 0.1619,-0.65587 0.1739,-1.27153 0.016,-0.81201 0.14,-1.14247 0.4526,-1.20349 0.6727,-0.1313 1.2889,0.68211 1.2889,1.70137 0,0.92148 0.4277,1.49828 2.0992,2.831 0.5455,0.43488 0.5956,0.64038 0.4526,1.85638 -0.1269,1.0799 -0.054,1.54238 0.3455,2.19974 0.6402,1.05274 3.3604,2.66115 5.1362,3.03696 0.7475,0.15821 1.7759,0.51134 2.2852,0.78474 0.6406,0.34386 1.2523,0.45702 1.9844,0.3671 0.5821,-0.0715 1.984,-0.20611 3.1153,-0.29914 z m -2.5305,-6.87988 c -0.3634,-0.3634 -0.1789,-1.82794 0.327,-2.5954 0.9726,-1.47535 2.5898,-1.90822 3.3065,-0.88501 0.6055,0.86451 0.52,0.99989 -0.6042,0.95584 -1.2991,-0.0509 -1.5104,0.0933 -2.2398,1.52853 -0.3309,0.65115 -0.6862,1.09937 -0.7895,0.99604 z m -6.1411,-10.57118 c -0.9257,-0.70059 -3.8574,-1.40839 -7.5621,-1.82572 -5.7883,-0.65205 -7.5463,-1.35317 -9.998,-3.9873 l -1.4139,-1.51922 -1.042,1.82426 c -0.9729,1.7032 -1.0329,1.9296 -0.9047,3.41176 0.1204,1.3901 0.092,1.52777 -0.2284,1.10715 -0.2012,-0.26419 -0.6293,-1.45481 -0.9513,-2.64583 -0.649,-2.40015 -0.6041,-4.74991 0.1368,-7.16375 0.7058,-2.29912 0.7026,-2.29974 3.6717,0.7084 4.1656,4.2204 5.9685,5.18084 11.1148,5.9209 3.9872,0.57338 5.3837,1.12753 6.8842,2.73165 1.5017,1.60541 1.6817,2.48871 0.2929,1.4377 z m -24.3468,14.02048 c 0.5504,-2.11313 0.5071,-3.4488 -0.146,-4.50559 -1.0296,-1.66596 -3.9047,-3.75567 -7.7863,-5.65937 -4.6962,-2.30319 -6.5399,-3.50233 -8.2239,-5.34887 -1.6386,-1.79674 -2.5899,-3.68049 -3.3233,-6.58053 -0.4753,-1.87958 -0.5363,-2.71752 -0.4213,-5.78312 0.2271,-6.05158 1.9943,-11.73404 5.5951,-17.99132 1.9786,-3.43823 2.0867,-4.05178 1.1811,-6.7026 -0.3091,-0.90492 -0.8881,-2.83593 -1.2867,-4.29114 -0.7176,-2.62049 -0.7321,-2.6455 -1.5176,-2.61084 -1.7241,0.0761 -6.9524,3.22833 -6.9524,4.19174 0,0.20788 0.8335,2.06469 1.8521,4.12625 1.0186,2.06156 1.8521,4.0145 1.8521,4.33987 0,0.32537 -0.7207,3.01993 -1.6016,5.98791 -3.041,10.24595 -4.215,15.82725 -4.259,20.24737 -0.039,3.93918 0.6854,6.04263 2.7294,7.92419 1.2341,1.13598 2.5351,1.73589 8.2906,3.82304 5.5581,2.01556 9.9244,4.24367 11.2359,5.73362 1.0865,1.23432 1.8538,3.1605 1.869,4.69165 0.011,1.09827 0.3795,0.45525 0.9128,-1.59226 z m 3.31,-10.09298 c 0,-0.0339 -0.5631,-0.34892 -1.2543,-0.69999 -1.9565,-0.99371 -4.3905,-3.71923 -5.6221,-6.29553 -1.6786,-3.51131 -2.1919,-5.83247 -2.2131,-10.00841 -0.028,-5.59355 0.5797,-7.42256 5.826,-17.52159 1.8691,-3.59776 3.7546,-7.22832 4.1901,-8.06792 0.778,-1.49984 0.7935,-1.6091 0.8899,-6.2477 0.054,-2.59664 0,-4.8082 -0.1304,-4.91457 -0.4214,-0.35678 -5.3974,0.0913 -5.6558,0.50933 -0.2566,0.41521 -0.1906,1.26668 0.4396,5.6699 0.2281,1.59348 0.3619,3.43895 0.2973,4.10104 -0.1301,1.3336 -1.4647,4.52683 -5.0218,12.0154 -3.5293,7.4298 -4.9721,11.90196 -4.9721,15.41138 0,0.63877 -0.1105,1.16139 -0.2455,1.16139 -0.3939,0 -0.6265,-2.74008 -0.4795,-5.64716 0.2588,-5.11559 2.0825,-10.4641 6.1648,-18.07964 2.2069,-4.11701 2.2896,-4.55276 1.405,-7.40001 -0.3188,-1.02597 -0.6348,-2.96091 -0.7276,-4.45473 -0.1641,-2.64092 -0.1641,-2.64092 -0.9401,-2.69984 -0.6977,-0.053 -3.0309,0.55291 -4.982,1.29374 -1.3697,0.52004 -1.2477,1.38502 1.1288,8.0034 l 0.8506,2.36889 -0.8534,1.99674 c -2.4846,5.8134 -4.1369,10.78243 -5.1951,15.62278 -0.3785,1.73132 -0.4889,3.31468 -0.4796,6.87917 0.011,4.30168 0.062,4.78039 0.7212,6.74687 1.5458,4.61328 3.9486,7.10944 9.3185,9.6806 3.2197,1.54157 4.1802,2.27528 4.9475,3.77934 l 0.5562,1.09026 1.0172,-2.11573 c 0.5594,-1.16364 1.0183,-2.14348 1.0197,-2.17741 z m 20.7689,1.00325 c 0.2307,-1.05056 -0.2028,-1.75955 -1.4717,-2.40688 -1.2154,-0.62006 -4.6833,-1.06523 -4.3718,-0.5612 0.1042,0.1687 0.3191,0.30673 0.4774,0.30673 0.1583,0 0.827,0.44649 1.486,0.99219 1.353,1.12046 3.2646,2.44456 3.5317,2.44626 0.098,6.2e-4 0.2543,-0.34907 0.3484,-0.7771 z m -2.2456,-17.22397 c 0,-0.15132 -0.2381,-0.74189 -0.5292,-1.31238 -0.2949,-0.57809 -0.5291,-1.55939 -0.5291,-2.21678 0,-1.55811 -0.1802,-1.95929 -1.0913,-2.43044 -0.5681,-0.29378 -1.1839,-0.34856 -2.4153,-0.21486 -0.909,0.0987 -2.3374,0.1838 -3.1742,0.1891 -0.8367,0.005 -1.5213,0.0473 -1.5213,0.0933 0,0.256 3.7924,4.557 4.1336,4.68792 0.2242,0.086 1.113,0.15639 1.9752,0.15639 1.3424,0 1.6502,0.0951 2.1427,0.66146 0.604,0.6946 1.0089,0.84966 1.0089,0.38634 z m -1.5875,-9.25525 c 0,-2.04727 -1.5379,-7.40296 -2.1258,-7.40296 -0.2303,0 -0.5182,5.21522 -0.3388,6.13517 0.1531,0.78452 1.8756,2.66426 2.2369,2.44098 0.1252,-0.0774 0.2277,-0.60533 0.2277,-1.17319 z m -6.2621,-15.31477 c 0.2,-1.91428 1.2124,-4.52631 2.5656,-6.62007 1.4711,-2.27604 6.352,-8.24752 6.6107,-8.08767 0.122,0.0754 0.1658,0.82011 0.097,1.65489 -0.3817,4.65412 -1.4906,7.901 -3.6762,10.76433 -1.054,1.38083 -1.044,1.92361 0.017,0.92674 2.5753,-2.41943 4.7678,-8.39004 5.0715,-13.81131 0.1622,-2.89393 0.1563,-2.9014 -1.5904,-2.01328 -2.7209,1.38352 -5.9015,4.02627 -7.7285,6.42151 -0.841,1.10261 -0.6969,1.58831 0.2165,0.73014 0.3363,-0.31587 0.7525,-0.57431 0.925,-0.57431 0.5379,0 0.349,0.86757 -0.6354,2.91789 -1.8927,3.94218 -2.2643,5.07458 -2.4198,7.37493 -0.1743,2.57824 0.2823,2.84251 0.5464,0.31621 z m 16.5377,-1.68957 c 0.5938,-0.76962 1.3916,-2.10907 1.7731,-2.97657 0.3814,-0.86749 0.8003,-1.81539 0.9308,-2.10643 0.5131,-1.14389 1.32,-4.724 1.1118,-4.93228 -0.1214,-0.12136 -1.4696,0.52204 -2.996,1.42977 -1.5265,0.90774 -3.2781,1.87687 -3.8926,2.15363 -0.9928,0.44712 -1.5386,1.21659 -0.863,1.21659 0.1398,0 0.5087,0.26789 0.8197,0.59531 0.5036,0.5301 0.5478,0.79291 0.4037,2.39903 -0.1067,1.18989 -0.07,1.74733 0.1063,1.63803 0.1475,-0.0911 0.2681,-0.32346 0.2681,-0.5163 0,-0.84302 2.1971,-4.67303 3.1145,-5.42924 1.2502,-1.03053 1.7655,-1.05605 1.5321,-0.0759 -0.4191,1.76029 -1.6325,4.49803 -2.6976,6.08636 -1.2434,1.8543 -1.2738,1.91728 -0.9228,1.91728 0.1278,0 0.7182,-0.62968 1.3119,-1.39929 z"
       id="path9" /></g></svg>
