<?xml version="1.0" encoding="UTF-8" standalone="no"?>
<!-- Created with Inkscape (http://www.inkscape.org/) -->

<svg
   width="146.67734mm"
   height="98.782791mm"
   viewBox="0 0 146.67734 98.782792"
   version="1.1"
   id="svg1"
   inkscape:version="1.4.2 (f4327f4, 2025-05-13)"
   sodipodi:docname="path3-2.svg"
   xml:space="preserve"
   inkscape:export-filename="HOUSSEM 6.svg"
   inkscape:export-xdpi="96"
   inkscape:export-ydpi="96"
   xmlns:inkscape="http://www.inkscape.org/namespaces/inkscape"
   xmlns:sodipodi="http://sodipodi.sourceforge.net/DTD/sodipodi-0.dtd"
   xmlns:xlink="http://www.w3.org/1999/xlink"
   xmlns="http://www.w3.org/2000/svg"
   xmlns:svg="http://www.w3.org/2000/svg"><sodipodi:namedview
     id="namedview1"
     pagecolor="#ffffff"
     bordercolor="#000000"
     borderopacity="0.25"
     inkscape:showpageshadow="2"
     inkscape:pageopacity="0.0"
     inkscape:pagecheckerboard="0"
     inkscape:deskcolor="#d1d1d1"
     inkscape:document-units="mm"
     inkscape:zoom="0.5"
     inkscape:cx="3591"
     inkscape:cy="161"
     inkscape:window-width="1920"
     inkscape:window-height="974"
     inkscape:window-x="-11"
     inkscape:window-y="-11"
     inkscape:window-maximized="1"
     inkscape:current-layer="layer1"
     inkscape:export-bgcolor="#ffffffff" /><defs
     id="defs1"><linearGradient
       id="linearGradient11"
       inkscape:collect="always"><stop
         style="stop-color:#cdc9b7;stop-opacity:1;"
         offset="0"
         id="stop11" /><stop
         style="stop-color:#9b4dd4;stop-opacity:1;"
         offset="1"
         id="stop12" /></linearGradient><linearGradient
       inkscape:collect="always"
       xlink:href="#linearGradient11"
       id="linearGradient12"
       x1="-4977.9849"
       y1="-1008.6888"
       x2="-4831.3076"
       y2="-1008.6888"
       gradientUnits="userSpaceOnUse" /></defs><g
     inkscape:label="Layer 1"
     inkscape:groupmode="layer"
     id="layer1"
     transform="translate(4977.9845,1058.0802)"><rect
       style="fill:url(#linearGradient12);stroke-width:0.264999"
       id="rect11"
       width="146.67751"
       height="98.782814"
       x="-4977.9849"
       y="-1058.0802"
       inkscape:export-filename="rect11.svg"
       inkscape:export-xdpi="96"
       inkscape:export-ydpi="96" /><path
       style="fill:#000000"
       d="m -4896.9547,-995.78625 c -0.9739,-0.66093 -0.9862,-0.66209 -2.4583,-0.23414 -3.2883,0.95593 -7.4614,0.12546 -9.8659,-1.96336 l -0.926,-0.80448 1.0318,-1.01116 c 0.5675,-0.55611 1.1926,-1.39431 1.3891,-1.86261 0.6381,-1.5208 0.3268,-2.9788 -0.439,-2.0561 -0.1798,0.2167 -0.4499,0.394 -0.6001,0.394 -0.1503,0 -0.076,-0.2177 0.1647,-0.4839 0.2408,-0.2661 0.4378,-0.6729 0.4378,-0.904 0,-0.733 -0.6443,-0.671 -1.1205,0.1078 -0.2526,0.413 -0.5984,0.7509 -0.7687,0.7509 -0.1894,0 -0.1396,-0.1876 0.1285,-0.4838 0.5499,-0.6077 0.5626,-1.1037 0.028,-1.1037 -0.6292,0 -1.5793,1.1786 -1.9652,2.4377 l -0.3476,1.1342 -0.3368,-0.7937 c -0.5511,-1.2988 -0.7182,-3.6626 -0.3771,-5.3356 0.677,-3.3203 3.0231,-6.3194 6.0244,-7.7011 1.9674,-0.9059 5.7014,-1.1444 7.6295,-0.4874 1.1919,0.4061 1.2847,0.4026 1.8033,-0.068 1.9012,-1.7268 4.6814,-1.2843 5.5897,0.8897 0.5568,1.3325 0.5568,16.92934 0,18.26175 -0.7936,1.89958 -3.2244,2.53725 -5.0219,1.31743 z m -3.5476,-6.90955 c 0.3887,-0.1957 0.9552,-0.7047 1.2589,-1.1312 1.2231,-1.7177 0.9335,-3.6106 -0.7906,-5.1682 -0.9104,-0.8226 -1.2178,-0.9435 -2.3977,-0.9435 -1.1391,0 -1.5028,-0.1312 -2.297,-0.8286 -1.2115,-1.0637 -3.3869,-2.0759 -4.4684,-2.0793 -0.971,0 -1.4819,0.5089 -0.5604,0.5615 0.3981,0.023 0.2893,0.092 -0.3121,0.1984 -1.2306,0.2181 -1.4726,1.0896 -0.3026,1.0896 0.4386,0 0.879,0.1318 0.9785,0.2929 0.1259,0.2036 -0.071,0.2376 -0.6458,0.1113 -0.4548,-0.1 -0.8269,-0.1134 -0.8269,-0.03 0,0.4424 2.3487,1.7531 3.6108,2.0151 1.2082,0.2509 1.4216,0.3769 1.2566,0.7424 -0.4224,0.9354 -0.4174,2.8874 0.01,3.713 0.9714,1.8784 3.3793,2.5176 5.4872,1.4566 z m -25.1771,6.9041 c -5.5827,-1.7389 -8.9477,-7.0301 -7.9656,-12.5256 0.591,-3.307 2.167,-5.7461 4.8498,-7.5061 1.7173,-1.1266 2.7608,-1.5047 4.9395,-1.7899 4.6369,-0.607 10.0789,2.1867 10.0789,5.1741 0,0.7326 -0.727,2.5005 -1.0283,2.5005 -0.096,0 -0.3829,-0.387 -0.6378,-0.8599 -0.5405,-1.0027 -1.8523,-1.9688 -3.1657,-2.3315 -0.509,-0.1405 -1.3863,-0.627 -1.9495,-1.0811 -1.2714,-1.0251 -3.1819,-1.9045 -3.7031,-1.7045 -0.2994,0.1149 -0.3803,0.5716 -0.3435,1.9392 0.048,1.7888 0.048,1.7888 -1.5073,3.3594 -1.5554,1.5706 -1.5554,1.5706 -3.1429,1.5134 -0.8732,-0.031 -1.7525,0.053 -1.9541,0.187 -0.5184,0.3453 -0.2162,1.3078 0.8937,2.8466 1.0429,1.4461 1.0146,1.3878 1.4454,2.9703 0.4049,1.4873 2.14,3.38282 3.4581,3.77772 1.3324,0.39918 3.0253,0.11448 4.5645,-0.76762 1.2231,-0.701 4.6892,-3.9106 4.6892,-4.3423 0,-0.4508 1.0509,-0.1872 1.8142,0.4551 1.0515,0.8848 1.4955,2.2231 1.1163,3.3648 -0.5862,1.76492 -3.4416,4.01305 -6.0998,4.80246 -1.7267,0.51277 -4.736,0.52127 -6.352,0.0179 z m 43.1234,-0.0943 c -1.297,-0.27979 -2.3728,-0.89624 -3.36,-1.92543 -1.4918,-1.55525 -1.6671,-2.34107 -1.6671,-7.47627 v -4.6263 l -1.1683,-0.5168 c -1.449,-0.641 -2.1389,-1.6472 -2.1389,-3.1196 0,-0.9171 0.164,-1.2907 0.8999,-2.05 0.495,-0.5106 1.2391,-1.003 1.6537,-1.094 0.7319,-0.1608 0.7536,-0.214 0.7536,-1.844 0,-1.4171 0.1061,-1.8045 0.6808,-2.4875 1.3605,-1.6169 3.5943,-1.5814 5.1281,0.081 0.5118,0.5548 0.6721,1.0603 0.7564,2.3841 l 0.107,1.6801 1.1376,0.1283 c 1.5316,0.1726 2.6877,1.0416 3.0661,2.3046 0.4015,1.3401 0.138,2.2789 -0.9432,3.36 -0.7096,0.7096 -1.0942,0.884 -1.9494,0.884 -1.0311,0 -1.0863,-0.046 -1.7159,-1.4208 -0.7931,-1.7325 -2.3987,-3.5629 -3.547,-4.0436 -1.697,-0.7104 -3.8707,-0.2114 -4.7191,1.0835 -0.4251,0.6488 -0.4254,0.7201 0,1.1854 0.2464,0.2723 0.9911,0.6318 1.6548,0.799 2.3782,0.5988 4.3911,1.8922 5.491,3.5283 1.3025,1.9375 1.4717,2.4751 1.4717,4.676 v 2.1298 h 1.6995 c 1.4398,0 1.8232,0.104 2.5088,0.6809 0.4451,0.3745 0.9458,1.1368 1.1128,1.69399 0.2583,0.8621 0.2294,1.16208 -0.1937,2.01394 -0.7899,1.59039 -1.6722,2.07596 -3.884,2.1376 -1.0477,0.0292 -2.3215,-0.0368 -2.8309,-0.14667 z m -41.6525,-8.6344 c -0.2804,-0.2122 -0.4311,-0.4645 -0.3349,-0.5608 0.096,-0.096 -0.032,-0.3276 -0.2839,-0.5141 -0.5523,-0.4081 -0.1288,-1.0075 0.6095,-0.8625 0.6656,0.1307 1.5032,1.3516 1.2966,1.89 -0.2095,0.546 -0.6089,0.5607 -1.2873,0.047 z m 4.0817,-0.082 c 0,-0.1698 -0.3502,-0.3087 -0.7781,-0.3087 -1.0922,0 -1.184,-0.3484 -0.2698,-1.0242 0.7833,-0.5792 0.7833,-0.5792 0.7833,0.037 0,0.339 0.1409,0.7573 0.3131,0.9295 0.1722,0.1723 0.2317,0.3945 0.1323,0.4939 -0.099,0.099 -0.1808,0.042 -0.1808,-0.1278 z m 1.6084,-1.2568 c 0.013,-0.3083 0.075,-0.371 0.1598,-0.1599 0.077,0.191 0.067,0.4192 -0.021,0.5071 -0.088,0.088 -0.1505,-0.068 -0.139,-0.3472 z m -1.9978,-2.0631 c -0.858,-0.858 -0.8959,-1.7545 -0.074,-1.743 0.6775,0.01 1.5993,1.1127 1.4732,1.7631 -0.1365,0.7035 -0.6838,0.6956 -1.3996,-0.02 z"
       id="path10" /></g></svg>
