<?xml version="1.0" encoding="UTF-8" standalone="no"?>
<!-- Created with Inkscape (http://www.inkscape.org/) -->

<svg
   width="160.82616mm"
   height="253.599mm"
   viewBox="0 0 160.82616 253.599"
   version="1.1"
   id="svg1"
   inkscape:version="1.4.2 (f4327f4, 2025-05-13)"
   sodipodi:docname="HOUSSEM 2.svg"
   xml:space="preserve"
   inkscape:export-filename="HOUSSEM 6.svg"
   inkscape:export-xdpi="96"
   inkscape:export-ydpi="96"
   xmlns:inkscape="http://www.inkscape.org/namespaces/inkscape"
   xmlns:sodipodi="http://sodipodi.sourceforge.net/DTD/sodipodi-0.dtd"
   xmlns:xlink="http://www.w3.org/1999/xlink"
   xmlns="http://www.w3.org/2000/svg"
   xmlns:svg="http://www.w3.org/2000/svg"><sodipodi:namedview
     id="namedview1"
     pagecolor="#ffffff"
     bordercolor="#000000"
     borderopacity="0.25"
     inkscape:showpageshadow="2"
     inkscape:pageopacity="0.0"
     inkscape:pagecheckerboard="0"
     inkscape:deskcolor="#d1d1d1"
     inkscape:document-units="mm"
     inkscape:zoom="0.5"
     inkscape:cx="3591"
     inkscape:cy="161"
     inkscape:window-width="1920"
     inkscape:window-height="974"
     inkscape:window-x="-11"
     inkscape:window-y="-11"
     inkscape:window-maximized="1"
     inkscape:current-layer="layer1"
     inkscape:export-bgcolor="#ffffffff"><inkscape:page
       x="-0.00019329219"
       y="-8.3078536e-05"
       width="160.82616"
       height="253.59901"
       id="page6"
       margin="0"
       bleed="0" /></sodipodi:namedview><defs
     id="defs1"><linearGradient
       id="linearGradient41"
       inkscape:collect="always"><stop
         style="stop-color:#e1ff00;stop-opacity:1;"
         offset="0"
         id="stop42" /><stop
         style="stop-color:#ffffff;stop-opacity:1;"
         offset="1"
         id="stop43" /></linearGradient><linearGradient
       inkscape:collect="always"
       xlink:href="#linearGradient41"
       id="linearGradient43"
       x1="930.27496"
       y1="19.346546"
       x2="1091.1011"
       y2="20.934046"
       gradientUnits="userSpaceOnUse" /></defs><g
     inkscape:label="Layer 1"
     inkscape:groupmode="layer"
     id="layer1"
     transform="translate(-930.2749,98.689534)"><path
       d="m 1220.3239,55.989864 h 157.592 l -39.9521,46.373396 h -117.6399 v 74.04303 h 117.6399 39.9521 l -39.9521,46.37288 h -157.592 l 46.3734,39.95208 V 420.32318 L 1180.3718,380.3711 V 262.73125 h -74.043 V 380.3711 420.32318 L 1059.9559,380.3711 V 222.77917 h 120.4159 V 102.36326 Z"
       style="fill:#1a1a1a;fill-opacity:0.868627;stroke-width:0.264999"
       id="path129" /><rect
       style="fill:#000000;stroke-width:0.264999"
       id="rect22"
       width="160.82613"
       height="214.7778"
       x="930.27496"
       y="-59.868374"
       inkscape:export-filename="rect22.png"
       inkscape:export-xdpi="96"
       inkscape:export-ydpi="96" /><path
       style="fill:url(#linearGradient43);fill-opacity:1"
       d="m 965.52485,138.24959 c 0,-0.81034 15.4375,-31.69815 31.9801,-63.986701 1.8958,-3.70037 3.39775,-6.80759 3.33765,-6.90495 -0.06,-0.0974 -1.63175,-0.24824 -3.49225,-0.33531 -1.8605,-0.0871 -6.2998,-0.2959 -9.8651,-0.46407 -3.5652,-0.16818 -6.5909,-0.40833 -6.7237,-0.53367 -0.2198,-0.20742 4.8956,-8.05097 10.6875,-16.38718 3.1052,-4.46923 3.0292,-4.29587 2.4115,-5.50678 -0.7369,-1.44442 -2.3558,-2.80241 -4.1578,-3.48766 -1.4216,-0.54057 -1.6931,-0.56412 -3.1428,-0.27265 -2.2465,0.45167 -3.9765,1.37693 -6.2386,3.33666 -2.3341,2.02214 -4.1165,2.79736 -6.8094,2.96155 -2.1376,0.13034 -3.6925,-0.19716 -5.7381,-1.20863 -3.5892,-1.77473 -4.9072,-3.80695 -5.5456,-8.55062 -0.1256,-0.93346 -0.4495,-1.55281 -1.3838,-2.64583 -2.0404,-2.38689 -3.046,-4.11581 -3.6927,-6.34861 -0.5041,-1.74041 -0.8582,-2.40169 -1.9304,-3.60467 -1.9609,-2.20006 -1.9907,-3.00552 -0.205,-5.54848 0.8771,-1.24896 1.9964,-2.88285 6.6712,-9.73782 1.2901,-1.89178 2.5864,-3.76948 2.8807,-4.17267 0.5206,-0.71329 0.5222,-0.75492 0.057,-1.54162 -0.6026,-1.02004 -0.8354,-3.48603 -0.4597,-4.86905 0.468,-1.7229 1.6539,-2.84336 6.1674,-5.82687 8.9325,-5.904532 14.5097,-8.161922 22.5758,-9.137552 2.3281,-0.2816 2.9931,-0.49051 5.5375,-1.73978 1.59035,-0.78087 3.23295,-1.41976 3.65005,-1.41976 0.9076,0 1.9608,0.96404 2.2153,2.02774 0.2757,1.15223 0.6067,1.41185 1.8002,1.41185 0.9787,0 1.361,-0.21665 3.4733,-1.96859 2.2941,-1.90277 5.5589,-3.8702 7.3345,-4.41996 2.3838,-0.73808 3.9813,-1.00178 6.1205,-1.01036 2.3289,-0.009 2.3575,-0.001 3.1878,0.87894 1.378,1.46112 1.8705,3.59568 1.8705,8.10747 0,2.11005 -0.055,4.4913 -0.1228,5.29166 l -0.1229,1.455212 1.4457,0.7558 c 0.7951,0.41569 2.3331,1.29182 3.4176,1.94695 1.8999,1.14762 1.9869,1.17301 2.3813,0.6946 4.7692,-5.785462 10.524,-12.833272 14.7948,-18.118922 1.2181,-1.50751 2.3931,-2.78214 2.611,-2.83251 0.218,-0.0504 0.3369,0.009 0.2642,0.13229 -0.1928,0.3264 -1.1407,2.43484 -2.7174,6.04471 -0.7628,1.74625 -2.3005,5.25859 -3.4172,7.80521 -2.0132,4.591182 -4.1891,9.744842 -4.9678,11.766142 l -0.4046,1.05051 1.8941,1.8599 c 8.3918,8.24007 14.0638,20.22254 16.1599,34.13907 0.5478,3.63676 0.5426,13.65623 -0.01,17.61234 -0.4807,3.44656 -2.3205,10.87869 -3.6363,14.68927 -4.8424,14.02391 -12.8518,26.64177 -24.4643,38.540581 -2.1895,2.24351 -2.9738,2.89555 -2.9738,2.47206 0,-0.0592 0.3599,-0.90977 0.7996,-1.89017 0.4399,-0.98039 0.7287,-1.85364 0.6418,-1.94055 -0.087,-0.0869 -0.7099,0.49577 -1.3845,1.29485 -1.9109,2.26332 -6.2717,6.69859 -9.214,9.37136 -4.7037,4.2727 -11.3348,9.09656 -12.1007,8.80267 -0.2491,-0.0956 -0.2831,-0.61095 -0.1366,-2.07419 0.1073,-1.07083 0.2111,-3.1376 0.2307,-4.5928 0.02,-1.45521 0.1269,-3.28803 0.2384,-4.07292 0.1853,-1.30515 0.325,-1.53028 1.6343,-2.63488 5.4749,-4.61894 12.4211,-12.50129 16.8219,-19.089081 5.4375,-8.13956 9.5632,-16.36243 13.2836,-26.47498 1.3158,-3.57668 2.2732,-6.82749 2.0704,-7.03031 -0.1235,-0.12346 -0.6707,1.12289 -2.7455,6.25321 -3.9259,9.70791 -10.1543,19.75726 -16.6528,26.86891 -2.9093,3.18387 -6.5109,6.42166 -6.6567,5.98431 -0.055,-0.16372 0.8588,-1.51426 2.0298,-3.00119 1.171,-1.48694 2.0689,-2.7637 1.9953,-2.83725 -0.073,-0.0736 -1.6476,1.35839 -3.498,3.18208 -3.5244,3.473611 -7.056,6.580221 -7.4804,6.580221 -0.3379,0 -0.3178,-2.52118 0.058,-7.208781 0.1719,-2.14582 0.2321,-3.98183 0.1339,-4.08004 -0.2423,-0.24226 -1.0931,0.57663 -4.2443,4.08486 -1.4735,1.64038 -3.6315,4.036921 -4.79575,5.325641 -1.1642,1.28873 -4.9714,5.54255 -8.4604,9.45292 -3.4891,3.91038 -6.775,7.58603 -7.3019,8.16811 -1.7317,1.91283 -7.4871,8.33014 -9.2103,10.26959 -0.9291,1.04568 -2.596,2.85006 -3.7042,4.00972 -1.1082,1.15967 -2.5248,2.70493 -3.148,3.43391 -1.2323,1.44147 -1.9096,1.95413 -1.9096,1.44554 z m 14.8747,-19.86404 c 2.7435,-3.59631 4.9881,-6.50992 6.935,-9.00203 0.7175,-0.91838 2.4376,-3.15806 3.8225,-4.97707 1.3849,-1.81901 3.0687,-4.02166 3.7418,-4.894791 0.6731,-0.87312 3.1679,-4.14734 5.54405,-7.27604 2.3761,-3.1287 4.7575,-6.22432 5.292,-6.87917 0.5345,-0.65484 1.9233,-2.44078 3.0863,-3.96875 1.163,-1.52796 3.1129,-4.08781 4.3332,-5.68854 1.2203,-1.60073 3.3556,-4.40857 4.7451,-6.23966 1.3896,-1.83109 4.4315,-5.81588 6.7598,-8.85511 2.3283,-3.03922 4.4118,-5.78614 4.6301,-6.10425 0.2183,-0.31812 1.1109,-1.51254 1.9836,-2.65427 0.8727,-1.14173 2.7565,-3.60915 4.1863,-5.48316 1.453,-1.90456 2.499,-3.50776 2.3717,-3.63508 -0.1253,-0.12528 -4.301,-0.43208 -9.2794,-0.68177 -6.7214,-0.33712 -9.0517,-0.53747 -9.0517,-0.77824 0,-0.17833 0.3476,-1.07669 0.7724,-1.99635 0.4248,-0.91966 1.2419,-2.74367 1.8158,-4.05336 7.8023,-17.80595 12.7795,-28.67662 16.9372,-36.99272 1.9509,-3.90214 3.4834,-7.158522 3.4055,-7.236392 -0.2411,-0.24111 -0.6656,0.15419 -1.553,1.446262 -0.4696,0.6838 -2.1092,2.85062 -3.6436,4.81515 -3.9203,5.0195 -8.0916,10.55315 -13.0938,17.37011 -2.1599,2.94358 -6.7184,9.14132 -8.1844,11.12759 -0.4519,0.61233 -1.5485,2.10061 -2.4368,3.30729 -0.8884,1.20668 -4.2244,5.70631 -7.4135,9.99917 -3.1891,4.29287 -6.45095,8.69101 -7.24845,9.77365 -0.7975,1.08265 -3.1392,4.2378 -5.2037,7.01146 -2.0645,2.77366 -3.6718,5.12461 -3.5719,5.22435 0.291,0.29035 6.3194,0.72348 12.57085,0.90321 4.4373,0.12756 5.8058,0.24738 5.9094,0.5174 0.1137,0.29629 -4.8112,10.23476 -9.64125,19.45582 -0.7174,1.36959 -2.1147,4.03797 -3.1051,5.92974 -6.533,12.477991 -13.1776,24.702751 -16.7037,30.731581 -1.2904,2.20618 -1.6331,3.00279 -1.292,3.00279 0.068,0 1.2291,-1.44847 2.5797,-3.21882 z m 62.08725,-35.389911 c 1.4497,-2.78549 3.7724,-8.76846 5.2466,-13.51418 3.0403,-9.78793 4.1917,-18.08337 3.5552,-25.61543 -0.1805,-2.13709 -0.5145,-4.54046 -0.7421,-5.34082 -0.2277,-0.80037 -0.4739,-1.78409 -0.5473,-2.18605 -0.073,-0.40197 -0.2386,-0.79595 -0.3674,-0.87552 -0.3536,-0.21854 -0.283,0.90769 0.2108,3.36307 0.3366,1.67342 0.4482,3.69381 0.4584,8.29745 0.014,6.45069 -0.037,6.90313 -1.7095,15.08125 -0.667,3.2617 -3.2475,11.71744 -4.9934,16.36209 -1.9977,5.31487 -2.2304,5.9952 -2.0502,5.9952 0.068,0 0.4903,-0.70517 0.9389,-1.56706 z m -61.35155,-48.96454 c 0,-0.39068 -2.7923,-1.72242 -4.8947,-2.33449 -1.8313,-0.53311 -3.745,-0.69124 -7.4745,-0.61761 -1.927,0.038 -2.5473,0.39183 -1.1906,0.67901 0.4001,0.0847 1.8993,0.27301 3.3315,0.41844 2.8851,0.29298 6.8795,1.07645 8.5086,1.66886 1.311,0.47679 1.7197,0.52095 1.7197,0.18579 z m -16.1395,-1.01264 c 0,-0.1183 -0.3722,-0.56478 -0.8271,-0.99219 -1.6898,-1.58757 -2.2524,-4.11184 -1.4336,-6.43238 0.5224,-1.48074 -0.022,-1.46989 -0.9875,0.0197 -0.9956,1.53549 -1.0118,3.62754 -0.04,5.1196 0.9771,1.49944 3.2878,3.10558 3.2878,2.28528 z m 25.007,-2.43701 c 0.2229,-0.36074 -1.7092,-1.19274 -4.4184,-1.90267 -1.9562,-0.51259 -2.904,-0.57806 -8.5501,-0.59056 -6.0688,-0.0134 -7.9866,0.13983 -7.6931,0.6148 0.074,0.11906 2.9658,0.30019 6.427,0.40252 6.2688,0.18532 10.2475,0.60869 12.5109,1.33125 1.4803,0.47258 1.519,0.47582 1.7237,0.14466 z m 1.1867,-4.45679 c 0,-0.36139 -2.9349,-1.09245 -5.6205,-1.40003 -3.8857,-0.44502 -11.8296,0.15256 -13.9587,1.05003 -0.4751,0.20031 1.4247,0.24097 6.7469,0.14438 4.0746,-0.0739 8.3013,-0.0217 9.3927,0.11612 2.6976,0.34062 3.4396,0.35992 3.4396,0.0895 z m 11.14725,-0.15135 c 4.9206,-1.04297 9.2499,-5.04713 10.6733,-9.87154 0.3371,-1.14273 -0.5074,-0.61595 -1.167,0.72799 -0.8924,1.81802 -2.9308,4.23748 -4.6872,5.56364 -1.7206,1.29906 -4.7973,2.7789 -6.309,3.03449 -1.81665,0.30715 -2.10375,0.42389 -1.68865,0.68677 0.504,0.3192 1.13895,0.29096 3.17855,-0.14135 z m -23.74495,-3.35098 c 0.7111,-0.13019 3.4197,-0.23671 6.0192,-0.23671 2.6899,0 4.7264,-0.10456 4.7264,-0.24266 0,-0.86505 -7.5384,-1.33666 -11.3771,-0.71175 -2.7584,0.44907 -5.9515,1.25854 -6.2757,1.59095 -0.2428,0.24904 5.0302,-0.0562 6.9072,-0.39983 z m -21.423,-0.97445 c -0.1535,-0.96027 -0.042,-1.15173 2.6558,-4.56406 1.5488,-1.95896 4.0901,-5.46667 5.6472,-7.79491 2.5118,-3.75555 3.5678,-5.03587 5.0559,-6.13009 0.2312,-0.17 0.3366,-0.39283 0.2343,-0.49517 -0.2671,-0.26708 -2.3133,1.00126 -3.2888,2.03852 -0.8169,0.86863 -10.1313,13.74859 -10.6685,14.75245 -0.3052,0.57026 -0.3766,2.74186 -0.099,3.0192 0.4279,0.42794 0.6115,0.10072 0.4633,-0.82594 z m 29.4954,-16.33709 c 0.7953,-0.90585 1.0967,-1.97517 0.5566,-1.97517 -0.1456,0 -0.2646,0.138 -0.2646,0.30667 0,0.16866 -0.563,0.8235 -1.251,1.4552 -1.1963,1.09829 -1.2206,1.14855 -0.5566,1.14855 0.4637,0 0.9673,-0.31078 1.5156,-0.93525 z m -4.6697,0.43985 c 1.0466,-0.0281 1.4326,-0.1933 2.3151,-0.9906 0.5825,-0.52625 1.0591,-1.1811 1.0591,-1.4552 0,-0.42719 -0.2061,-0.49838 -1.4428,-0.49838 -2.1144,0 -3.9596,0.78697 -4.5579,1.94398 -0.4471,0.86472 -0.2017,1.20213 0.7968,1.09533 0.3155,-0.0337 1.1389,-0.0766 1.8297,-0.0951 z m 15.6557,-3.36937 c 0.6176,-0.237 0.5083,-0.6322 -0.1768,-0.63943 -1.0456,-0.011 -3.4409,-1.1619 -5.6609,-2.71987 -3.3638,-2.36071 -6.0061,-3.35029 -8.9611,-3.35612 -3.0401,-0.006 -5.6411,1.39807 -7.0094,3.78379 -1.2835,2.23804 -0.9581,2.87447 0.3986,0.77935 1.6053,-2.47916 5.0502,-3.92125 7.9151,-3.31339 2.2155,0.47007 4.1469,1.30685 6.649,2.88078 2.0619,1.29702 3.8935,2.10374 5.8088,2.55847 0.291,0.0691 0.5492,0.13945 0.5736,0.15633 0.024,0.0169 0.2329,-0.0416 0.4631,-0.12991 z m -31.0669,-1.39357 c 0,-0.86835 1.3238,-2.90329 2.6009,-3.99797 1.4547,-1.24688 2.2309,-1.43572 1.3763,-0.33484 -1.2081,1.55635 -2.4197,3.54799 -2.3272,3.82548 0.053,0.16012 0.5281,-0.2928 1.055,-1.00649 2.7588,-3.73715 7.2913,-7.18875 12.1118,-9.223462 5.3559,-2.2607 13.4755,-3.84813 19.68305,-3.84813 2.4677,0 3.5139,-0.34153 2.1188,-0.69167 -0.9936,-0.24938 -10.22405,0.0673 -12.14475,0.41671 -6.7696,1.23143 -11.4622,3.06523 -15.7795,6.166362 -1.1117,0.79851 -2.8977,1.8766 -3.9688,2.39576 -2.4701,1.19724 -3.745,2.26235 -4.4107,3.68492 -0.6495,1.38812 -0.977,3.10917 -0.5915,3.10917 0.1521,0 0.2766,-0.22313 0.2766,-0.49584 z m 59.39725,-16.437492 c 0,-3.04266 -0.051,-3.40046 -0.6597,-4.47161 -0.3698,-0.65086 -1.0699,-1.38813 -1.5875,-1.67186 -2.801,-1.53517 -8.3344,1.11616 -14.2873,6.84579 -1.2369,1.19042 -2.1741,2.23908 -2.0828,2.33037 0.091,0.0913 0.886,-0.4049 1.7661,-1.10263 0.8801,-0.69773 2.0555,-1.6254 2.612,-2.06148 3.7342,-2.92627 7.5609,-4.92414 9.785,-5.10858 1.3512,-0.11205 1.4643,-0.0715 2.3137,0.82909 1.1427,1.21168 1.5691,3.41087 1.3616,7.0238 l -0.1463,2.54648 0.4617,-0.92604 c 0.3648,-0.73176 0.4621,-1.61992 0.4635,-4.23333 z m -19.6901,149.555723 c 0.039,-3.5627 0.2048,-4.029 1.8324,-5.15522 2.8072,-1.9424 6.4085,-4.57949 7.8645,-5.75884 2.5845,-2.09329 8.9141,-7.5777 9.578,-8.29897 0.6959,-0.75596 1.2226,-0.92525 0.9896,-0.31801 -0.1819,0.47405 -2.6946,3.91784 -4.6463,6.36802 -1.814,2.27742 -5.0055,5.70746 -7.2054,7.7441 -0.1994,0.18467 -1.4342,1.39459 -2.7439,2.68871 -2.581,2.55036 -4.9297,4.51615 -5.3957,4.51615 -0.1871,0 -0.2858,-0.64496 -0.2732,-1.78594 z m 72.0267,-228.486533 c -0.092,-0.14962 -0.026,-0.17758 0.1556,-0.0654 0.1744,0.10779 0.5955,0.0135 0.9358,-0.20944 0.5327,-0.34903 0.6875,-0.35403 1.1129,-0.036 0.4622,0.34567 0.4531,0.3591 -0.1426,0.20865 -0.3897,-0.0984 -0.5739,-0.0591 -0.4747,0.10135 0.093,0.15091 -0.1748,0.26217 -0.6317,0.26217 -0.4366,0 -0.8665,-0.11762 -0.9553,-0.26137 z m -1.4932,-1.64829 c 0.1606,-0.4185 0.6197,-0.5275 0.6197,-0.14712 0,0.12995 -0.1726,0.30248 -0.3834,0.3834 -0.2563,0.0983 -0.3346,0.02 -0.2363,-0.23628 z m 2.1576,-1.09331 c 0.191,-0.0764 0.4192,-0.067 0.5071,0.0209 0.088,0.0879 -0.068,0.15045 -0.3473,0.13897 -0.3082,-0.0127 -0.3709,-0.0754 -0.1598,-0.15986 z m -0.3473,-0.89926 c -1.0334,-0.10022 -1.2566,-0.16948 -0.6394,-0.19843 0.5214,-0.0245 1.0309,-0.1273 1.1321,-0.22853 0.2683,-0.26828 0.9892,-0.33769 0.8298,-0.0799 -0.074,0.12032 0.014,0.27216 0.1972,0.33743 0.6837,0.2441 0.017,0.31846 -1.5197,0.16944 z"
       id="path3-2"
       inkscape:export-filename="path3-2.png"
       inkscape:export-xdpi="96"
       inkscape:export-ydpi="96" /></g></svg>
