<?xml version="1.0" encoding="UTF-8" standalone="no"?>
<!-- Created with Inkscape (http://www.inkscape.org/) -->

<svg
   width="217.31076mm"
   height="91.898621mm"
   viewBox="0 0 217.31077 91.898621"
   version="1.1"
   id="svg1"
   inkscape:version="1.4.2 (f4327f4, 2025-05-13)"
   sodipodi:docname="path3-2.svg"
   xml:space="preserve"
   inkscape:export-filename="HOUSSEM 6.svg"
   inkscape:export-xdpi="96"
   inkscape:export-ydpi="96"
   xmlns:inkscape="http://www.inkscape.org/namespaces/inkscape"
   xmlns:sodipodi="http://sodipodi.sourceforge.net/DTD/sodipodi-0.dtd"
   xmlns:xlink="http://www.w3.org/1999/xlink"
   xmlns="http://www.w3.org/2000/svg"
   xmlns:svg="http://www.w3.org/2000/svg"><sodipodi:namedview
     id="namedview1"
     pagecolor="#ffffff"
     bordercolor="#000000"
     borderopacity="0.25"
     inkscape:showpageshadow="2"
     inkscape:pageopacity="0.0"
     inkscape:pagecheckerboard="0"
     inkscape:deskcolor="#d1d1d1"
     inkscape:document-units="mm"
     inkscape:zoom="0.5"
     inkscape:cx="3591"
     inkscape:cy="161"
     inkscape:window-width="1920"
     inkscape:window-height="974"
     inkscape:window-x="-11"
     inkscape:window-y="-11"
     inkscape:window-maximized="1"
     inkscape:current-layer="layer1"
     inkscape:export-bgcolor="#ffffffff" /><defs
     id="defs1"><linearGradient
       id="linearGradient4"
       inkscape:collect="always"><stop
         style="stop-color:#0707ff;stop-opacity:1;"
         offset="0"
         id="stop4" /><stop
         style="stop-color:#000000;stop-opacity:1;"
         offset="1"
         id="stop5" /></linearGradient><linearGradient
       inkscape:collect="always"
       xlink:href="#linearGradient4"
       id="linearGradient5"
       x1="-5512.8384"
       y1="-392.13074"
       x2="-5295.5273"
       y2="-392.13074"
       gradientUnits="userSpaceOnUse" /></defs><g
     inkscape:label="Layer 1"
     inkscape:groupmode="layer"
     id="layer1"
     transform="translate(5512.8384,438.08005)"><rect
       style="fill:#fff6d5;stroke-width:0.264999"
       id="rect4"
       width="129.50044"
       height="86.236183"
       x="-5458.5107"
       y="-438.08005" /><path
       style="fill:url(#linearGradient5);fill-opacity:1"
       d="m -5512.8385,-392.13074 v -45.94931 h 108.6555 108.6556 v 45.94931 45.94931 h -108.6556 -108.6555 z m 82.5106,5.68847 0.049,-2.60181 -0.764,0.76397 c -1.8501,1.85019 -5.6106,2.75652 -11.4603,2.76213 l -1.8962,0.002 v 0.76436 c 0,0.42039 0.054,0.81817 0.1196,0.88396 0.066,0.0658 3.2209,0.0989 7.0114,0.0735 l 6.8919,-0.0461 z m 19.1874,1.82814 c 0.7435,-0.33768 1.9174,-1.55424 2.0727,-2.14787 0.08,-0.30664 -0.01,-0.34166 -0.8581,-0.34166 -0.7653,0 -0.9835,0.0675 -1.1353,0.35096 -0.4567,0.8534 -2.0814,1.18518 -3.1352,0.64024 -0.5184,-0.26807 -1.0991,-1.06669 -1.0991,-1.5116 0,-0.12265 1.1099,-0.18515 3.2879,-0.18515 h 3.2879 l -0.098,-0.94763 c -0.1714,-1.66025 -0.974,-2.79466 -2.3985,-3.38992 -0.92,-0.38449 -2.9352,-0.32161 -3.8476,0.12005 -2.9079,1.40768 -2.9173,5.93553 -0.015,7.37196 0.9869,0.4885 2.9088,0.50832 3.9385,0.0406 z m -3.9786,-4.9764 c 0,-0.33825 1.025,-1.16652 1.5812,-1.27778 0.2945,-0.0589 0.7765,-0.0589 1.071,0 0.5562,0.11126 1.5812,0.93953 1.5812,1.27778 0,0.13005 -0.6963,0.19381 -2.1167,0.19381 -1.4204,0 -2.1167,-0.0638 -2.1167,-0.19381 z m 12.4354,4.97571 c 0.9663,-0.44597 1.5107,-1.08847 1.6214,-1.91364 0.1947,-1.45152 -0.5904,-2.14447 -3.1581,-2.78762 -1.4746,-0.36937 -1.889,-0.64423 -1.6237,-1.07709 0.4257,-0.69475 1.6863,-0.6352 2.7231,0.12865 0.1985,0.14619 0.4662,0.14433 1.0287,-0.007 0.7282,-0.19607 0.7497,-0.22094 0.5069,-0.58656 -0.1394,-0.20997 -0.5486,-0.62065 -0.9093,-0.91258 -0.5684,-0.46007 -0.8269,-0.53942 -1.9398,-0.59562 -1.8411,-0.093 -2.9428,0.49664 -3.282,1.75654 -0.3913,1.45313 0.4797,2.3174 2.9015,2.87908 1.4602,0.33863 1.8668,0.54743 1.8668,0.95879 0,1.27118 -3.1491,1.27404 -3.4814,0.003 -0.071,-0.2726 -0.2517,-0.33482 -0.971,-0.33482 -0.8834,0 -0.8834,0 -0.7746,0.54401 0.1615,0.80735 0.7202,1.48777 1.5652,1.90601 0.986,0.4881 2.9116,0.50715 3.9263,0.0388 z m 7.9514,-10e-4 c 1.2948,-0.58806 1.8607,-1.65745 1.5052,-2.8442 -0.2605,-0.86925 -0.9069,-1.26912 -2.842,-1.7581 -1.6811,-0.42479 -2.1311,-0.71844 -1.8307,-1.1947 0.4398,-0.69714 1.659,-0.63051 2.7163,0.14841 0.1985,0.1462 0.4662,0.14435 1.0286,-0.007 l 0.7604,-0.20475 -0.4304,-0.56259 c -0.2367,-0.30943 -0.7392,-0.73989 -1.1168,-0.95658 -1.3349,-0.76615 -3.8511,-0.37053 -4.5641,0.71758 -0.3393,0.51796 -0.3943,1.66733 -0.1056,2.2069 0.2556,0.4775 1.2317,0.9728 2.484,1.26034 2.0486,0.47043 2.5715,0.94633 1.8034,1.64148 -0.8051,0.72854 -2.7126,0.40031 -3.1241,-0.53753 -0.1455,-0.33165 -0.3121,-0.39688 -1.0142,-0.39688 -0.9536,0 -1.0307,0.16242 -0.5538,1.16744 0.3102,0.65359 1.0348,1.25172 1.7936,1.48044 0.8947,0.26971 2.7291,0.18554 3.4902,-0.16015 z m 8.3783,0.13317 c 1.5759,-0.47215 2.6221,-1.93725 2.6273,-3.67922 0,-1.49404 -0.2892,-2.28917 -1.1523,-3.12047 -0.8436,-0.81251 -1.6462,-1.11091 -2.988,-1.11091 -1.8225,0 -3.1689,0.77669 -3.8162,2.20139 -0.4334,0.95414 -0.429,2.76259 0.01,3.72738 0.3636,0.80065 1.2833,1.62485 2.1735,1.94771 0.7493,0.27174 2.2975,0.28853 3.1466,0.0341 z m -2.7832,-1.7318 c -1.1357,-0.69247 -1.4783,-2.40854 -0.7089,-3.55037 0.558,-0.82804 1.0988,-1.0703 2.2117,-0.99073 0.7658,0.0548 1.0391,0.16798 1.4875,0.61635 0.4612,0.46125 0.5607,0.71315 0.6208,1.57198 0.06,0.8574 0,1.12209 -0.3462,1.6375 -0.2298,0.33814 -0.6138,0.714 -0.8535,0.83524 -0.647,0.32741 -1.7693,0.27157 -2.4114,-0.11997 z m 15.1905,1.82607 c 0.1786,-0.0685 0.279,-0.32254 0.279,-0.70556 0,-0.58925 -0.012,-0.59849 -0.7721,-0.59849 -0.4534,0 -0.8584,-0.10384 -0.981,-0.25156 -0.1365,-0.16445 -0.2097,-1.03463 -0.2114,-2.51354 v -2.26199 l 0.9836,-0.0529 c 0.9836,-0.0529 0.9836,-0.0529 0.9836,-0.74085 0,-0.68795 0,-0.68795 -1.0007,-0.74085 l -1.0006,-0.0529 0.012,-1.367 0.012,-1.36702 h -0.8637 -0.8638 v 1.41111 1.41112 h -1.4993 -1.4993 v -0.57327 c 0,-0.7836 0.1622,-0.97334 0.8806,-1.05426 0.5633,-0.0634 0.6206,-0.12329 0.6695,-0.69885 0.05,-0.59114 0.017,-0.63634 -0.5489,-0.74247 -0.8013,-0.15032 -1.856,0.22115 -2.2905,0.80675 -0.1947,0.26246 -0.3883,0.86921 -0.4361,1.36701 -0.085,0.88193 -0.095,0.89509 -0.681,0.89509 -0.5764,0 -0.5949,0.0219 -0.5949,0.70555 0,0.68876 0.015,0.70556 0.6174,0.70556 h 0.6173 v 3.175 3.175 h 0.8779 0.8779 l 0.048,-3.13091 0.048,-3.1309 h 1.4111 1.4112 l 0.088,2.58397 c 0.097,2.83731 0.1968,3.10974 1.323,3.60684 0.5603,0.24735 1.6361,0.31916 2.1022,0.14032 z m -49.1099,-1.36491 c 0,-1.0432 0.064,-1.35393 0.3311,-1.59516 0.3172,-0.28714 0.3839,-0.23325 1.6031,1.29558 l 1.2721,1.59516 h 1.2291 1.2291 l -1.7739,-2.18397 c -0.9757,-1.20118 -1.7739,-2.25134 -1.7739,-2.33366 0,-0.0823 0.6929,-0.84579 1.5397,-1.69659 l 1.5397,-1.54688 h -1.3344 -1.3344 l -1.192,1.23472 c -0.6556,0.67909 -1.2242,1.23471 -1.2636,1.23471 -0.039,0 -0.072,-1.23446 -0.072,-2.74325 v -2.74323 l -0.926,0.0533 -0.9261,0.0533 -0.047,5.33576 -0.047,5.33577 h 0.9727 0.9727 z m -15.3904,-1.71681 c 4.099,-0.45705 6.662,-1.98383 7.6522,-4.55833 0.2977,-0.7739 0.397,-1.50228 0.465,-3.40949 l 0.087,-2.42534 h -1.9825 -1.9825 l 0.119,0.63432 c 0.1963,1.04672 0.1424,3.54315 -0.092,4.25558 -0.8589,2.61046 -3.0282,3.68163 -7.9253,3.91339 l -2.2048,0.10435 -0.057,0.59006 c -0.1022,1.06705 -0.065,1.08563 2.1746,1.08563 1.1226,0 2.8084,-0.0856 3.7464,-0.19016 z m -0.9783,-3.53313 c 2.8884,-0.60416 3.9533,-2.2935 3.5891,-5.69387 l -0.1248,-1.16616 h -1.6422 -1.6421 l 0.082,1.4552 c 0.072,1.27499 0.032,1.55351 -0.3282,2.24896 -0.5879,1.13648 -1.4879,1.58659 -3.3588,1.67977 l -1.4615,0.0728 -0.054,0.79941 -0.054,0.79941 h 2.0295 c 1.1162,0 2.4501,-0.088 2.9642,-0.19552 z"
       id="path4" /></g></svg>
